<?xml version="1.0" encoding="utf-8"?>
<!-- Generator: Adobe Illustrator 27.5.0, SVG Export Plug-In . SVG Version: 6.00 Build 0)  -->
<svg version="1.1" id="Layer_1" xmlns="http://www.w3.org/2000/svg" xmlns:xlink="http://www.w3.org/1999/xlink" x="0px" y="0px"
	 viewBox="0 0 60 60" enable-background="new 0 0 60 60" xml:space="preserve">
<g>
	<g>
		<g>
			<g opacity="0.5">
				<path fill="#11B7AB" d="M16.4,58.9c-0.2,0-0.6-0.1-0.9-0.4c-0.8-0.7-0.3-1.9,0-2.3c1.2-2.5,2.4-5,3.6-7.5l2.1-4.4
					c1.5-3,2.9-6,4.4-9c0.3-0.7,0.3-0.9,0.3-1c0,0,0,0-0.1-0.1c-1.1-0.5-2.1-1.1-3.2-1.6c-1.3-0.6-2.6-1.3-3.9-1.9
					c-0.6-0.3-0.8-0.8-0.9-1.1c-0.1-0.7,0.2-1.5,1-2.5l3.9-4.5c4-4.6,8.1-9.4,12.2-14.2c0.6-0.7,1.2-1.4,1.8-2.1
					c1.2-1.5,2.5-2.9,3.8-4.4c0.3-0.4,0.8-0.8,1.4-0.8c0,0,0,0,0,0c0.3,0,0.6,0.1,0.9,0.4c0.8,0.8,0.2,1.9-0.2,2.6
					c-3.1,5.8-6.1,11.7-9.2,17.5c-0.4,0.7-0.8,1.5-0.8,1.8c0.1,0.1,0.4,0.2,0.7,0.4c1.3,0.7,2.6,1.3,3.9,2l1.3,0.7
					c1,0.5,2.1,1,3.1,1.5c0.7,0.4,0.9,0.9,1,1.2c0.1,0.7-0.2,1.5-1.1,2.5c-3.1,3.5-6.2,7-9.4,10.4l-6.1,6.8
					c-1.9,2.1-3.7,4.1-5.6,6.2l-1,1.1c-0.2,0.2-0.4,0.4-0.6,0.7c-0.4,0.4-0.7,0.7-1,1.2C17.4,58.6,17,58.9,16.4,58.9L16.4,58.9z"/>
			</g>
			<g>
				<path fill="#11B7AB" d="M41.9,1.8c0.1,0,0.3,0.1,0.4,0.2c0.4,0.4,0.1,1.1-0.3,1.7c-3.1,5.8-6.1,11.7-9.2,17.5
					c-1.3,2.4-1.3,2.4,0.1,3.1c1.3,0.7,2.6,1.3,3.9,2c1.5,0.7,2.9,1.5,4.4,2.2c0.9,0.5,0.8,1.3-0.3,2.6
					c-5.2,5.8-10.3,11.5-15.5,17.3c-2.2,2.4-4.4,4.9-6.6,7.3c-0.6,0.6-1.2,1.1-1.7,1.9c-0.3,0.4-0.6,0.6-0.8,0.6c0,0,0,0,0,0
					c-0.2,0-0.3-0.1-0.4-0.2c-0.4-0.3-0.1-0.9,0.1-1.5c1.9-4,3.8-7.9,5.8-11.9c1.5-3,2.9-6,4.4-9c0.6-1.2,0.6-1.7-0.1-2
					c-2.4-1.2-4.7-2.4-7.1-3.6c-0.8-0.4-0.7-1.3,0.3-2.5c5.4-6.2,10.7-12.4,16.1-18.7c1.9-2.2,3.7-4.4,5.6-6.5
					C41.4,2,41.7,1.8,41.9,1.8C41.9,1.8,41.9,1.8,41.9,1.8 M41.9,0.4L41.9,0.4L41.9,0.4c-0.9,0-1.5,0.6-1.9,1.1
					c-1.3,1.4-2.6,2.9-3.8,4.4c-0.6,0.7-1.2,1.4-1.8,2.1c-4.1,4.7-8.2,9.5-12.2,14.1c-1.3,1.5-2.6,3-3.9,4.6c-1,1.1-1.3,2.1-1.2,3.1
					c0.1,0.7,0.6,1.3,1.3,1.7c1.3,0.6,2.6,1.3,3.9,1.9c0.9,0.5,1.9,0.9,2.8,1.4c0,0.1-0.1,0.2-0.1,0.3c-1.5,3-2.9,6-4.4,9
					c-0.7,1.5-1.4,2.9-2.1,4.4c-1.2,2.5-2.4,5-3.6,7.5c-0.3,0.5-1,2.1,0.2,3.2c0.5,0.4,1,0.5,1.4,0.5h0l0,0c0.7,0,1.4-0.4,2-1.2
					c0.3-0.4,0.6-0.7,0.9-1.1c0.2-0.2,0.4-0.4,0.7-0.7l0.9-1c1.9-2.1,3.8-4.2,5.7-6.3c2.1-2.3,4.1-4.6,6.2-6.9
					c3.1-3.5,6.2-6.9,9.3-10.4c1-1.1,1.4-2.2,1.3-3.1c-0.1-0.4-0.4-1.2-1.4-1.7c-1-0.5-2.1-1-3.1-1.5l-1.3-0.7
					c-1.3-0.7-2.6-1.3-3.9-2c0,0,0,0-0.1,0c0.2-0.3,0.4-0.7,0.6-1.1c3.1-5.8,6.2-11.8,9.2-17.5l0,0c0.4-0.7,1.2-2.2,0-3.4
					C43,0.6,42.5,0.4,41.9,0.4L41.9,0.4z"/>
			</g>
		</g>
		<g>
			<path fill="#11B7AB" d="M46,8.6l-0.6-0.4l-2.2,4l0.4,0.3c5.6,4.3,8.7,10.8,8.7,17.8c0,12.4-10.1,22.5-22.5,22.5l-0.8,0L25.2,57
				l1.2,0.2c1.2,0.1,2.3,0.2,3.4,0.2c14.9,0,27.1-12.1,27.1-27.1C56.9,21.8,52.8,13.7,46,8.6z"/>
		</g>
		<g>
			<path fill="#11B7AB" d="M31.2,3.3c-0.5,0-0.9,0-1.4,0C14.9,3.3,2.8,15.4,2.8,30.3c0,7.8,3.4,15.2,9.3,20.4l0.6,0.5l2.1-4.2
				l-0.3-0.3c-4.5-4.3-7.2-10.3-7.2-16.5c0-11.8,9.3-21.7,21.1-22.5l0.3,0l3.9-4.4L31.2,3.3z"/>
		</g>
	</g>
</g>
</svg>
