<?xml version="1.0" encoding="utf-8"?>
<!-- Generator: Adobe Illustrator 19.1.0, SVG Export Plug-In . SVG Version: 6.00 Build 0)  -->
<svg version="1.1" id="Layer_1" xmlns="http://www.w3.org/2000/svg" xmlns:xlink="http://www.w3.org/1999/xlink" x="0px" y="0px"
	 viewBox="0 0 125 78" style="enable-background:new 0 0 125 78;" xml:space="preserve">
<style type="text/css">
	.st0{fill:#FFFFFF;}
	.st1{fill:#F58220;}
	.st2{fill:url(#SVGID_1_);}
	.st3{fill:#001722;}
	.st4{fill:#231F20;}
</style>
<g>
	<path class="st0" d="M125,73.8c0,2.3-1.9,4.2-4.2,4.2H4.2C1.9,78,0,76.1,0,73.8V4.2C0,1.9,1.9,0,4.2,0h116.7c2.3,0,4.2,1.9,4.2,4.2
		V73.8z"/>
	<path class="st1" d="M34.4,78h86.5c2.3,0,4.2-1.9,4.2-4.2V44.6C116.7,49.9,85.4,68,34.4,78z"/>
	<g>
		
			<radialGradient id="SVGID_1_" cx="56.1089" cy="-450.8421" r="6.181" gradientTransform="matrix(0.9966 0 0 0.995 8.1024 487.5776)" gradientUnits="userSpaceOnUse">
			<stop  offset="5.618000e-03" style="stop-color:#FFEEE0"/>
			<stop  offset="0.1096" style="stop-color:#FEE9D7"/>
			<stop  offset="0.2793" style="stop-color:#FDDBBF"/>
			<stop  offset="0.4935" style="stop-color:#FBC597"/>
			<stop  offset="0.744" style="stop-color:#F8A560"/>
			<stop  offset="1" style="stop-color:#F48120"/>
		</radialGradient>
		<path class="st2" d="M64,32.9c-3.4,0-6.2,2.7-6.2,6c0,3.5,2.7,6.2,6.2,6.2c3.5,0,6.2-2.7,6.2-6.1C70.2,35.6,67.5,32.9,64,32.9z"/>
		<path class="st3" d="M28.6,33.1h-3.4v11.7h3.3c1.8,0,3-0.4,4.2-1.3c1.3-1.1,2.1-2.8,2.1-4.5C34.9,35.5,32.3,33.1,28.6,33.1z
			 M31.3,41.9c-0.7,0.6-1.6,0.9-3.1,0.9h-0.6v-7.7h0.6c1.5,0,2.4,0.3,3.1,0.9c0.8,0.7,1.3,1.8,1.3,2.9
			C32.5,40.1,32.1,41.2,31.3,41.9z"/>
		<rect x="35.9" y="33.1" class="st3" width="2.3" height="11.7"/>
		<path class="st3" d="M43.8,37.6c-1.4-0.5-1.8-0.8-1.8-1.5c0-0.7,0.7-1.3,1.7-1.3c0.7,0,1.2,0.3,1.8,0.9l1.2-1.6
			c-1-0.9-2.2-1.3-3.4-1.3c-2.1,0-3.6,1.4-3.6,3.3c0,1.6,0.7,2.4,2.9,3.2c0.9,0.3,1.4,0.5,1.6,0.7c0.5,0.3,0.7,0.7,0.7,1.2
			c0,0.9-0.8,1.6-1.8,1.6c-1.1,0-2-0.5-2.5-1.6l-1.5,1.4c1.1,1.5,2.3,2.2,4.1,2.2c2.4,0,4-1.6,4-3.8C47.2,39.4,46.4,38.6,43.8,37.6z
			"/>
		<path class="st3" d="M47.9,39c0,3.4,2.7,6.1,6.2,6.1c1,0,1.8-0.2,2.9-0.7v-2.7C56,42.6,55.2,43,54.2,43c-2.3,0-3.9-1.7-3.9-4
			c0-2.2,1.7-4,3.8-4c1.1,0,1.9,0.4,2.9,1.3v-2.7c-1-0.5-1.8-0.7-2.8-0.7C50.7,32.9,47.9,35.6,47.9,39z"/>
		<polygon class="st3" points="75.4,41 72.3,33.1 69.8,33.1 74.8,45.1 76,45.1 81,33.1 78.6,33.1 		"/>
		<polygon class="st3" points="82.1,44.8 88.5,44.8 88.5,42.8 84.4,42.8 84.4,39.7 88.4,39.7 88.4,37.7 84.4,37.7 84.4,35.1 
			88.5,35.1 88.5,33.1 82.1,33.1 		"/>
		<path class="st3" d="M97.6,36.6c0-2.2-1.5-3.4-4.1-3.4h-3.4v11.7h2.3v-4.7h0.3l3.2,4.7h2.8l-3.7-4.9
			C96.6,39.6,97.6,38.4,97.6,36.6z M93,38.5h-0.7V35H93c1.4,0,2.2,0.6,2.2,1.7C95.2,37.9,94.5,38.5,93,38.5z"/>
		<path class="st4" d="M99.2,34c0-0.2-0.1-0.3-0.4-0.3h-0.3v1h0.2v-0.4l0.3,0.4h0.3L99,34.3C99.1,34.3,99.2,34.2,99.2,34z
			 M98.8,34.2L98.8,34.2l0-0.3h0c0.1,0,0.2,0,0.2,0.1C98.9,34.1,98.9,34.2,98.8,34.2z"/>
		<path class="st4" d="M98.8,33.3c-0.5,0-0.9,0.4-0.9,0.9c0,0.5,0.4,0.9,0.9,0.9c0.5,0,0.9-0.4,0.9-0.9S99.3,33.3,98.8,33.3z
			 M98.8,34.9c-0.4,0-0.7-0.3-0.7-0.7c0-0.4,0.3-0.7,0.7-0.7c0.4,0,0.7,0.3,0.7,0.7C99.6,34.6,99.2,34.9,98.8,34.9z"/>
	</g>
</g>
</svg>
