<?xml version="1.0" encoding="utf-8"?>
<!-- Generator: Adobe Illustrator 27.5.0, SVG Export Plug-In . SVG Version: 6.00 Build 0)  -->
<svg version="1.1" id="Layer_1" xmlns="http://www.w3.org/2000/svg" xmlns:xlink="http://www.w3.org/1999/xlink" x="0px" y="0px"
	 viewBox="0 0 32 32" style="enable-background:new 0 0 32 32;" xml:space="preserve">
<style type="text/css">
	.st0{fill:#00A1D3;}
</style>
<g>
	<path class="st0" d="M17.3,22.7c1.7-1.9,3.5-3.8,5.2-5.8c0.5-0.5,0.7-1,0.6-1.4c0-0.2-0.2-0.5-0.6-0.7c-0.6-0.3-1.1-0.6-1.7-0.9
		l-0.7-0.4c-0.7-0.4-1.5-0.7-2.2-1.1c-0.1-0.1-0.3-0.2-0.4-0.2c0-0.2,0.2-0.6,0.5-1c1.7-3.2,3.4-6.4,5.1-9.7c0.2-0.4,0.5-1,0.1-1.4
		C23,0,22.8,0,22.7,0c-0.3,0-0.6,0.2-0.8,0.4c-0.7,0.8-1.4,1.6-2.1,2.4c-0.3,0.4-0.7,0.8-1,1.2c-2.2,2.6-4.5,5.3-6.8,7.8l-2.2,2.5
		c-0.4,0.5-0.6,1-0.5,1.4c0,0.2,0.2,0.4,0.5,0.6c0.7,0.4,1.4,0.7,2.2,1.1c0.6,0.3,1.2,0.6,1.8,0.9c0,0,0.1,0,0.1,0
		c0,0,0,0.2-0.2,0.5c-0.8,1.7-1.6,3.3-2.4,5L10,26.3c-0.7,1.4-1.3,2.8-2,4.2c-0.1,0.3-0.4,0.9,0,1.3C8.2,32,8.4,32,8.5,32
		c0.3,0,0.5-0.2,0.8-0.5c0.2-0.2,1.5-1.6,1.5-1.6c1-1.1,2-2.3,3.1-3.4L17.3,22.7z"/>
	<path class="st0" d="M24.9,4.2l-0.3-0.2l-1.2,2.2l0.2,0.2c3.1,2.4,4.8,6,4.8,9.8c0,6.9-5.6,12.5-12.5,12.5h-0.4l-2.1,2.3l0.7,0.1
		c0.7,0.1,1.3,0.1,1.9,0.1c8.2,0,15-6.7,15-15C31,11.5,28.7,7,24.9,4.2z"/>
	<path class="st0" d="M3.5,16.2c0-6.6,5.1-12,11.7-12.4h0.1l2.2-2.4l-0.7-0.1c-0.2,0-0.5,0-0.8,0c-8.2,0-15,6.7-15,15
		c0,4.3,1.9,8.4,5.1,11.3l0.3,0.3l1.1-2.3l-0.2-0.2C5,22.9,3.5,19.6,3.5,16.2z"/>
</g>
</svg>
