<?xml version="1.0" encoding="utf-8"?>
<!-- Generator: Adobe Illustrator 27.5.0, SVG Export Plug-In . SVG Version: 6.00 Build 0)  -->
<svg version="1.1" id="Layer_1" xmlns="http://www.w3.org/2000/svg" xmlns:xlink="http://www.w3.org/1999/xlink" x="0px" y="0px"
	 viewBox="0 0 800 218" enable-background="new 0 0 800 218" xml:space="preserve">
<g>
	<g>
		<g>
			<g opacity="0.5">
				<path fill="#11B7AB" d="M85.2,182.2c-0.9,0-2.2-0.2-3.5-1.4c-3.2-2.8-1.2-6.8-0.6-8.2c3-6.2,6-12.3,9-18.5l5.2-10.8
					c3.6-7.4,7.2-14.8,10.7-22.2c0.1-0.2,0.2-0.4,0.2-0.5c-2-1-4-2-6-3l-1.1-0.5c-3-1.5-6.1-3-9.1-4.6c-1.8-0.9-3-2.4-3.3-4.2
					c-0.5-2.4,0.5-5,2.9-7.7l9.6-11.1c9.4-10.8,19.9-23.1,30.1-34.9c1.5-1.7,3-3.5,4.4-5.2c3-3.6,6.2-7.3,9.3-10.8
					c1-1.1,2.6-2.7,4.8-2.7c1.5,0,2.8,0.6,3.8,1.7c2.8,3.1,0.9,6.8-0.1,8.6c-7.6,14.4-15.1,28.7-22.7,43.1c-0.4,0.8-0.9,1.8-1.3,2.6
					c3.2,1.6,6.5,3.2,9.7,4.8l3.6,1.8c2.4,1.2,4.8,2.4,7.2,3.6c1.9,1,3.2,2.5,3.5,4.4c0.5,2.4-0.6,5-3.1,7.8
					c-7.7,8.6-15.4,17.1-23.1,25.7l-15.1,16.8c-4.6,5.1-9.1,10.2-13.7,15.3l-2.5,2.8c-0.5,0.6-1.1,1.1-1.6,1.7
					c-0.9,0.9-1.6,1.7-2.3,2.6C88.5,181.6,86.5,182.2,85.2,182.2L85.2,182.2L85.2,182.2z"/>
				<g>
					<path fill="#FFFFFF" d="M147.8,37.8c0.6,0,1.5,0.2,2.3,1.1c1.9,2.1,0.5,4.6-0.4,6.4c-7.6,14.4-15.1,28.7-22.7,43.1
						c-1,1.8-1.9,3.7-2.1,4.4c0.3,0.2,1,0.6,1.6,0.9c3.2,1.6,6.5,3.2,9.7,4.8l3.2,1.6c2.5,1.3,5.1,2.5,7.6,3.8
						c1.7,0.9,2.3,2.1,2.5,3c0.3,1.8-0.5,3.8-2.7,6.1c-7.7,8.6-15.4,17.1-23.1,25.7l-15.1,16.8c-4.6,5.1-9.1,10.2-13.7,15.3
						l-2.5,2.8c-0.5,0.6-1,1.1-1.6,1.6c-0.9,0.9-1.8,1.8-2.5,2.8c-1,1.4-2.2,2.2-3.4,2.2h0c-0.5,0-1.4-0.2-2.2-0.9
						c-2-1.8-0.7-4.6-0.1-5.8c3-6.2,6-12.3,9-18.5l5.2-10.8c3.6-7.4,7.2-14.8,10.7-22.2c0.8-1.6,0.9-2.2,0.9-2.4
						c0,0-0.1-0.1-0.3-0.2c-2.6-1.3-5.3-2.7-7.9-4c-3.2-1.6-6.4-3.2-9.6-4.8c-1.6-0.8-2.1-2-2.3-2.8c-0.3-1.7,0.5-3.8,2.4-6.1
						l9.6-11.1c9.9-11.4,20.1-23.3,30.1-34.9c1.5-1.7,3-3.5,4.4-5.2c3-3.6,6.2-7.3,9.3-10.8C145.3,38.9,146.4,37.8,147.8,37.8
						C147.8,37.8,147.8,37.8,147.8,37.8 M147.8,33.8L147.8,33.8L147.8,33.8L147.8,33.8c-3.4,0-5.6,2.5-6.4,3.4
						c-3.2,3.6-6.3,7.3-9.4,10.9c-1.5,1.7-3,3.5-4.4,5.2c-10,11.7-20.2,23.5-30.1,34.9L88,99.3c-2.8,3.3-3.9,6.4-3.3,9.4
						c0.5,2.4,2,4.4,4.4,5.6c3,1.5,6.1,3,9.1,4.6l0.5,0.2l0.5,0.3c1.5,0.7,2.9,1.5,4.4,2.2c-3.4,7-6.7,13.9-10.1,20.9l-5.2,10.8
						c-3,6.2-6,12.3-9,18.5c-2.7,5.6-0.9,8.8,1.1,10.6c1.8,1.5,3.6,1.9,4.9,1.9h0l0.1,0c1.8,0,4.3-0.7,6.6-3.8
						c0.6-0.8,1.3-1.5,2.1-2.4c0.5-0.5,1.1-1.1,1.7-1.8l2.5-2.8l0.4-0.4c4.4-4.9,8.9-9.9,13.3-14.8l15.1-16.8
						c7.7-8.6,15.4-17.1,23.1-25.7c3-3.3,4.2-6.5,3.6-9.5c-0.5-2.5-2.1-4.6-4.6-5.8c-2.5-1.2-4.9-2.5-7.4-3.7l-0.2-0.1l-3.2-1.6
						c-2.6-1.3-5.3-2.6-7.9-3.9c0.1-0.3,0.3-0.5,0.4-0.7c7.6-14.6,15.3-29.1,22.7-43.1c1-1.9,3.6-6.8-0.2-10.9
						C151.7,34.6,149.8,33.8,147.8,33.8L147.8,33.8z"/>
				</g>
			</g>
			<g>
				<path fill="#11B7AB" d="M147.9,39.6c0.3,0,0.6,0.2,0.9,0.5c1,1.1,0.3,2.6-0.6,4.3c-7.6,14.4-15.1,28.7-22.7,43.1
					c-3.1,5.9-3.1,6,0.4,7.7c3.2,1.6,6.5,3.2,9.7,4.8c3.6,1.8,7.2,3.6,10.8,5.4c2.3,1.1,2,3.3-0.7,6.3
					c-12.7,14.2-25.4,28.3-38.2,42.5c-5.4,6-10.8,12-16.2,18c-1.4,1.6-2.9,2.8-4.2,4.6c-0.7,1-1.4,1.4-2,1.4c0,0,0,0,0,0
					c-0.4,0-0.7-0.2-1.1-0.5c-0.9-0.8-0.3-2.2,0.4-3.6c4.7-9.8,9.5-19.5,14.2-29.2c3.6-7.4,7.2-14.8,10.7-22.2
					c1.4-3,1.4-4.1-0.2-4.9c-5.8-2.9-11.7-5.8-17.5-8.8c-2-1-1.8-3.2,0.7-6.1c13.2-15.3,26.5-30.7,39.7-46.1
					c4.6-5.3,9.1-10.8,13.7-16C146.6,40.1,147.3,39.6,147.9,39.6C147.9,39.6,147.9,39.6,147.9,39.6 M147.9,36L147.9,36L147.9,36
					c-2.2,0-3.7,1.4-4.8,2.6c-3.2,3.5-6.3,7.3-9.3,10.8c-1.5,1.7-3,3.5-4.4,5.2c-10,11.6-20.2,23.4-30,34.8
					c-3.2,3.7-6.5,7.5-9.7,11.2c-2.3,2.7-3.3,5.3-2.8,7.6c0.3,1.8,1.5,3.2,3.2,4.1c3.2,1.6,6.3,3.2,9.5,4.8c2.3,1.2,4.6,2.3,6.9,3.5
					c-0.1,0.2-0.2,0.4-0.3,0.7c-3.6,7.4-7.2,14.8-10.7,22.2c-1.7,3.6-3.5,7.2-5.2,10.8c-3,6.2-6,12.3-9,18.5
					c-0.6,1.3-2.5,5.3,0.5,7.9c1.3,1.1,2.6,1.3,3.4,1.3h0l0,0c1.8,0,3.5-1,4.8-2.9c0.7-0.9,1.5-1.8,2.3-2.6c0.5-0.5,1.1-1.1,1.6-1.7
					l2.1-2.4c4.7-5.2,9.3-10.4,14-15.6c5.1-5.6,10.1-11.3,15.2-16.9c7.7-8.5,15.3-17.1,23-25.6c2.5-2.8,3.5-5.3,3.1-7.7
					c-0.2-1.1-0.9-3-3.4-4.3c-2.5-1.3-5.1-2.5-7.6-3.8l-3.2-1.6c-3.2-1.6-6.5-3.2-9.7-4.8c-0.1,0-0.1-0.1-0.2-0.1
					c0.4-0.8,0.9-1.8,1.4-2.7c7.5-14.4,15.2-29,22.6-43.1l0,0c0.9-1.8,2.9-5.4,0.1-8.4C150.5,36.6,149.2,36,147.9,36L147.9,36z"/>
			</g>
		</g>
		<g>
			<path fill="#11B7AB" d="M118.1,178.4c-2.8,0-5.7-0.2-8.7-0.6l-6.8-0.9l12.6-13.7l2.9,0.1c29.5,0,53.5-24,53.5-53.5
				c0-16.6-7.6-32-20.7-42.3l-2.4-1.8l7.3-13.4l3.3,2.4c17.3,12.9,27.7,33.5,27.7,55C186.7,147.6,156,178.4,118.1,178.4z"/>
			<g>
				<path fill="#FFFFFF" d="M156.4,55.3l1.4,1.1c16.8,12.6,26.9,32.5,26.9,53.4c0,36.7-29.9,66.6-66.6,66.6c-2.7,0-5.5-0.2-8.4-0.5
					l-2.9-0.4l9.4-10.2l1.9,0c30.6,0,55.5-24.9,55.5-55.5c0-17.2-7.8-33.2-21.5-43.8l-1-0.8L156.4,55.3 M155.1,49.3l-2.2,4.1
					l-5.3,9.9l-1.6,3l2.7,2.1l1,0.8c12.7,9.9,20,24.7,20,40.7c0,28.4-23.1,51.5-51.5,51.5l-1.9,0l-1.8,0l-1.2,1.3l-9.4,10.2
					l-5.2,5.7l7.7,1l2.9,0.4c3.1,0.4,6,0.6,8.9,0.6c38.9,0,70.6-31.7,70.6-70.6c0-22.2-10.6-43.3-28.5-56.6l-1.4-1.1L155.1,49.3
					L155.1,49.3z"/>
			</g>
		</g>
		<g>
			<path fill="#11B7AB" d="M121.6,43.2c-1.1-0.1-2.3-0.1-3.5-0.1c-36.7,0-66.6,29.9-66.6,66.6c0,19.2,8.4,37.6,22.9,50.2l1.5,1.3
				l5.1-10.2l-0.8-0.8C69,139.8,62.6,125,62.6,109.8c0-29.2,22.8-53.5,51.9-55.4l0.6,0l9.7-10.9L121.6,43.2z"/>
		</g>
	</g>
</g>
<g>
	<g>
		<path fill="#11B7AB" d="M302.1,109.7c-2.3-2-5.1-3.7-8.3-5.1c-3.2-1.4-6.7-2.5-10.5-3.4l-7.9-1.9c-2.7-0.6-5.1-1.4-7.2-2.3
			c-2.1-0.9-3.8-2-5-3.4c-1.2-1.4-1.8-3.1-1.8-5.1c0-2,0.6-3.7,1.7-5.2c1.1-1.5,2.8-2.7,5-3.6c2.2-0.9,4.7-1.3,7.7-1.3
			c4.4,0,8,1,10.7,3c2.7,2,4.2,4.8,4.5,8.4h17c-0.1-5.2-1.5-9.8-4.2-13.7c-2.7-3.9-6.4-7-11.2-9.2c-4.8-2.2-10.4-3.3-16.8-3.3
			c-6.3,0-11.9,1.1-16.8,3.3c-4.9,2.2-8.7,5.2-11.5,9.1c-2.8,3.9-4.2,8.5-4.2,13.7c0,6.3,2.1,11.3,6.2,15.2c4.2,3.8,10,6.7,17.6,8.4
			l9.4,2.3c3.3,0.7,6,1.6,8.3,2.5c2.2,1,3.9,2.1,5,3.5c1.1,1.4,1.7,3,1.7,5c0,2.2-0.7,4.1-2,5.7c-1.3,1.7-3.2,3-5.5,3.9
			c-2.4,0.9-5.1,1.4-8.3,1.4c-3.3,0-6.2-0.5-8.8-1.5c-2.6-1-4.6-2.6-6.1-4.6c-1.5-2-2.3-4.5-2.5-7.4h-17.2
			c0.1,6.1,1.6,11.3,4.4,15.6c2.8,4.2,6.8,7.4,12,9.6c5.1,2.2,11.2,3.2,18.3,3.2c7,0,13-1.1,18-3.2c5-2.1,8.8-5.1,11.5-9.1
			c2.7-3.9,4-8.5,4-13.8c0-3.5-0.6-6.6-1.9-9.4C306.2,114.1,304.5,111.7,302.1,109.7z"/>
	</g>
	<g>
		<path fill="#11B7AB" d="M353.1,123.8c0,2.9-0.5,5.4-1.6,7.4c-1.1,2-2.5,3.6-4.4,4.6c-1.9,1-4,1.6-6.5,1.6c-3.6,0-6.5-1.1-8.5-3.4
			c-2.1-2.2-3.1-5.4-3.1-9.4V87.1h-17.3v40.6c0,5.1,0.9,9.4,2.7,13.1c1.8,3.7,4.4,6.4,7.7,8.4c3.3,1.9,7.2,2.9,11.6,2.9
			c5.4,0,9.9-1.5,13.4-4.5c2.7-2.3,4.8-5.3,6.5-9l0.2,12.5h16.5v-64h-17.3V123.8z"/>
	</g>
	<g>
		<path fill="#11B7AB" d="M453.5,97.5H453c-0.9-1.9-2.2-3.7-3.8-5.4c-1.6-1.7-3.6-3.2-6-4.3c-2.4-1.1-5.3-1.7-8.8-1.7
			c-4.9,0-9.3,1.3-13.3,3.8c-3,1.9-5.6,4.5-7.7,7.8v-11c-0.7-0.2-1.6-0.3-2.6-0.3c-1-0.1-2-0.1-2.9-0.1c-3.7,0-6.9,1-9.6,3
			c-2.7,2-4.6,4.9-5.8,8.8h-0.6V87.1h-16.7v64h17.3v-36c0-2.8,0.6-5.2,1.7-7.2c1.2-2,2.8-3.6,4.8-4.8c2.1-1.1,4.4-1.7,6.9-1.7
			c1.4,0,2.8,0.1,4.2,0.2c0.4,0,0.8,0.1,1.2,0.1c-2.2,4.7-3.3,10.5-3.3,17.2c0,6.9,1.2,12.7,3.5,17.3c2.3,4.7,5.5,8.2,9.5,10.6
			c4,2.4,8.4,3.6,13.4,3.6c3.3,0,6.2-0.5,8.5-1.4c2.4-1,4.3-2.3,5.9-3.9c1.5-1.6,2.8-3.4,3.7-5.2h1v11.4c0,4.3-1.2,7.5-3.7,9.6
			c-2.5,2.1-5.9,3.1-10.3,3.1c-2.7,0-4.9-0.3-6.8-1c-1.8-0.7-3.3-1.6-4.4-2.7c-1.1-1.1-2-2.3-2.5-3.6l-15.2,3.2
			c0.8,3.3,2.5,6.2,5,8.7c2.5,2.5,5.7,4.5,9.7,5.9c4,1.4,8.8,2.1,14.3,2.1c6.1,0,11.4-1,16.1-2.9c4.7-1.9,8.3-4.8,11-8.8
			c2.7-3.9,4-8.9,4-14.8V87.1h-17.1V97.5z M452,128.5c-1.1,2.7-2.7,4.8-4.8,6.3c-2.1,1.5-4.6,2.2-7.6,2.2c-2.9,0-5.4-0.7-7.5-2.2
			c-2.1-1.5-3.7-3.6-4.7-6.3c-1.1-2.7-1.6-6-1.6-9.8c0-3.7,0.5-7,1.6-9.8c1.1-2.8,2.6-5,4.7-6.6c2.1-1.6,4.6-2.4,7.6-2.4
			c3,0,5.5,0.8,7.6,2.3c2.1,1.5,3.7,3.7,4.8,6.5c1.1,2.8,1.7,6.1,1.7,9.9C453.6,122.5,453.1,125.8,452,128.5z"/>
	</g>
	<g>
		<path fill="#11B7AB" d="M525,94.4c-2.8-2.7-6-4.8-9.6-6.2c-3.7-1.4-7.7-2.1-11.9-2.1c-6.2,0-11.6,1.4-16.3,4.2
			c-4.6,2.8-8.2,6.7-10.8,11.6c-2.6,5-3.8,10.8-3.8,17.4c0,6.7,1.3,12.5,3.9,17.4c2.6,4.9,6.2,8.8,11,11.5
			c4.7,2.7,10.4,4.1,16.9,4.1c5,0,9.5-0.8,13.4-2.3c3.9-1.5,7.2-3.7,9.8-6.4c2.6-2.8,4.4-6,5.4-9.7l-15.7-2.3
			c-0.6,1.7-1.5,3.1-2.7,4.2c-1.2,1.1-2.6,2-4.3,2.6c-1.7,0.6-3.5,0.9-5.6,0.9c-3,0-5.7-0.6-7.9-1.9c-2.3-1.3-4-3.2-5.2-5.7
			c-1.1-2.3-1.7-5-1.8-8.2h44.1v-4.8c0-5.3-0.8-10-2.3-14.1C530,100.5,527.8,97.1,525,94.4z M489.7,112.6c0.2-2.1,0.7-4.1,1.5-5.9
			c1.1-2.4,2.7-4.2,4.8-5.6c2.1-1.4,4.6-2,7.6-2c3,0,5.5,0.7,7.5,2c2,1.3,3.6,3.2,4.6,5.7c0.7,1.7,1.2,3.6,1.4,5.8H489.7z"/>
	</g>
	<g>
		<polygon fill="#11B7AB" points="522,79.5 548.4,79.5 548.4,151 566.2,151 566.2,79.5 592.5,79.5 592.5,64.7 522,64.7 		"/>
	</g>
	<g>
		<path fill="#11B7AB" d="M635.8,102l32.3-37.4h-21.6l-21.2,24.9c-2.5,3-4.8,5.8-6.8,8.5c-2,2.6-3.9,5.3-5.7,7.9
			c-0.3,0.4-0.6,0.9-0.9,1.4l0.2-18.9V64.7h-17.7V151h17.7v-24.4l11.5-12.8l24.5,37.3H669L635.8,102z"/>
	</g>
</g>
</svg>
