<?xml version="1.0" encoding="utf-8"?>
<!-- Generator: Adobe Illustrator 19.1.0, SVG Export Plug-In . SVG Version: 6.00 Build 0)  -->
<svg version="1.1" id="Layer_1" xmlns="http://www.w3.org/2000/svg" xmlns:xlink="http://www.w3.org/1999/xlink" x="0px" y="0px"
	 viewBox="0 0 125 78" style="enable-background:new 0 0 125 78;" xml:space="preserve">
<style type="text/css">
	.st0{fill:#13457C;}
	.st1{fill-rule:evenodd;clip-rule:evenodd;fill:#FBB231;}
	.st2{fill-rule:evenodd;clip-rule:evenodd;fill:#EC1C2E;}
	.st3{fill-rule:evenodd;clip-rule:evenodd;fill:#FFFFFF;}
	.st4{fill:none;stroke:#FFFFFF;stroke-width:0.216;stroke-miterlimit:2.6131;}
</style>
<g>
	<path class="st0" d="M125,73.8c0,2.3-1.9,4.2-4.2,4.2H4.2C1.9,78,0,76.1,0,73.8V4.2C0,1.9,1.9,0,4.2,0h116.7c2.3,0,4.2,1.9,4.2,4.2
		V73.8z"/>
	<g>
		<polygon class="st1" points="77.5,61.4 78.7,61.4 79.8,61.3 80.9,61.1 82,60.9 83.1,60.7 84.2,60.4 85.2,60 86.2,59.6 87.2,59.2 
			88.2,58.7 89.2,58.1 90.1,57.6 90.9,56.9 91.8,56.3 92.6,55.6 93.4,54.8 94.1,54 94.8,53.2 95.5,52.4 96.1,51.5 96.7,50.6 
			97.3,49.7 97.7,48.7 98.2,47.7 98.6,46.7 99,45.6 99.3,44.6 99.5,43.5 99.7,42.4 99.9,41.3 99.9,40.1 100,39 99.9,37.8 99.9,36.7 
			99.7,35.6 99.5,34.5 99.3,33.4 99,32.3 98.6,31.3 98.2,30.3 97.7,29.3 97.3,28.3 96.7,27.4 96.1,26.5 95.5,25.6 94.8,24.8 
			94.1,23.9 93.4,23.2 92.6,22.4 91.8,21.7 90.9,21.1 90.1,20.4 89.2,19.9 88.2,19.3 87.2,18.8 86.2,18.4 85.2,18 84.2,17.6 
			83.1,17.3 82,17.1 80.9,16.9 79.8,16.7 78.7,16.6 77.5,16.6 76.4,16.6 75.2,16.7 74.1,16.9 73,17.1 71.9,17.3 70.8,17.6 69.8,18 
			68.8,18.4 67.8,18.8 66.8,19.3 65.9,19.9 65,20.4 64.1,21.1 63.3,21.7 62.4,22.4 61.7,23.2 60.9,23.9 60.2,24.8 59.6,25.6 
			58.9,26.5 58.4,27.4 57.8,28.3 57.3,29.3 56.9,30.3 56.5,31.3 56.1,32.3 55.8,33.4 55.6,34.5 55.4,35.6 55.2,36.7 55.1,37.8 
			55.1,39 55.1,40.1 55.2,41.3 55.4,42.4 55.6,43.5 55.8,44.6 56.1,45.6 56.5,46.7 56.9,47.7 57.3,48.7 57.8,49.7 58.4,50.6 
			58.9,51.5 59.6,52.4 60.2,53.2 60.9,54 61.7,54.8 62.4,55.6 63.3,56.3 64.1,56.9 65,57.6 65.9,58.1 66.8,58.7 67.8,59.2 
			68.8,59.6 69.8,60 70.8,60.4 71.9,60.7 73,60.9 74.1,61.1 75.2,61.3 76.4,61.4 77.5,61.4 77.5,61.4 		"/>
		<polygon class="st2" points="47.5,61.4 48.6,61.4 49.8,61.3 50.9,61.1 52,60.9 53.1,60.7 54.2,60.4 55.2,60 56.2,59.6 57.2,59.2 
			58.2,58.7 59.1,58.1 60,57.6 60.9,56.9 61.7,56.3 62.6,55.6 63.3,54.8 64.1,54 64.8,53.2 65.4,52.4 66.1,51.5 66.6,50.6 
			67.2,49.7 67.7,48.7 68.1,47.7 68.5,46.7 68.9,45.6 69.2,44.6 69.4,43.5 69.6,42.4 69.8,41.3 69.9,40.1 69.9,39 69.9,37.8 
			69.8,36.7 69.6,35.6 69.4,34.5 69.2,33.4 68.9,32.3 68.5,31.3 68.1,30.3 67.7,29.3 67.2,28.3 66.6,27.4 66.1,26.5 65.4,25.6 
			64.8,24.8 64.1,23.9 63.3,23.2 62.6,22.4 61.7,21.7 60.9,21.1 60,20.4 59.1,19.9 58.2,19.3 57.2,18.8 56.2,18.4 55.2,18 
			54.2,17.6 53.1,17.3 52,17.1 50.9,16.9 49.8,16.7 48.6,16.6 47.5,16.6 46.3,16.6 45.2,16.7 44.1,16.9 43,17.1 41.9,17.3 
			40.8,17.6 39.8,18 38.8,18.4 37.8,18.8 36.8,19.3 35.8,19.9 34.9,20.4 34.1,21.1 33.2,21.7 32.4,22.4 31.6,23.2 30.9,23.9 
			30.2,24.8 29.5,25.6 28.9,26.5 28.3,27.4 27.7,28.3 27.2,29.3 26.8,30.3 26.4,31.3 26,32.3 25.7,33.4 25.5,34.5 25.3,35.6 
			25.1,36.7 25.1,37.8 25,39 25.1,40.1 25.1,41.3 25.3,42.4 25.5,43.5 25.7,44.6 26,45.6 26.4,46.7 26.8,47.7 27.2,48.7 27.7,49.7 
			28.3,50.6 28.9,51.5 29.5,52.4 30.2,53.2 30.9,54 31.6,54.8 32.4,55.6 33.2,56.3 34.1,56.9 34.9,57.6 35.8,58.1 36.8,58.7 
			37.8,59.2 38.8,59.6 39.8,60 40.8,60.4 41.9,60.7 43,60.9 44.1,61.1 45.2,61.3 46.3,61.4 47.5,61.4 47.5,61.4 		"/>
		<polygon class="st1" points="59.9,25.2 71.8,25.2 71.8,24 60.9,24 59.9,25.2 59.9,25.2 		"/>
		<polygon class="st1" points="58.1,27.9 71.8,27.9 71.8,26.7 58.8,26.7 58.1,27.9 58.1,27.9 		"/>
		<polygon class="st1" points="56.8,30.6 71.8,30.6 71.8,29.4 57.3,29.4 56.8,30.6 56.8,30.6 		"/>
		<polygon class="st1" points="55.8,33.3 71.8,33.3 71.8,32.1 56.2,32.1 55.8,33.3 55.8,33.3 		"/>
		<polygon class="st1" points="56.4,46.4 71.8,46.4 71.8,45.2 56,45.2 56.4,46.4 56.4,46.4 		"/>
		<polygon class="st1" points="57.5,49.1 71.8,49.1 71.8,47.9 56.9,47.9 57.5,49.1 57.5,49.1 		"/>
		<polygon class="st1" points="59.1,51.8 71.8,51.8 71.8,50.6 58.4,50.6 59.1,51.8 59.1,51.8 		"/>
		<polygon class="st1" points="61.3,54.5 71.8,54.5 71.8,53.2 60.3,53.2 61.3,54.5 61.3,54.5 		"/>
		<polygon class="st1" points="55.3,36 71.8,36 71.8,34.8 55.5,34.8 55.3,36 55.3,36 		"/>
		<polygon class="st1" points="65.4,43.7 71.6,43.7 71.6,42.5 65.6,42.5 65.4,43.7 65.4,43.7 		"/>
		<polygon class="st1" points="65.8,41 71.6,41 71.6,39.8 66.1,39.8 65.8,41 65.8,41 		"/>
		<polygon class="st1" points="54.9,39.8 56.5,39.8 56.5,41 55,41 54.9,39.8 54.9,39.8 		"/>
		<polygon class="st3" points="51.8,38.3 51.7,38.3 51.6,38.3 51.5,38.2 51.4,38.2 51.3,38.2 51.2,38.2 51.1,38.2 51,38.2 
			50.9,38.2 50.8,38.1 50.7,38.1 50.5,38.1 50.4,38.1 50.2,38.1 50,38.2 49.8,38.2 49.6,38.2 49.5,38.2 49.4,38.3 49.2,38.3 
			49.1,38.4 49,38.4 49,38.5 48.9,38.6 48.9,38.6 48.8,38.7 48.8,38.8 48.8,38.9 48.8,39 48.9,39.1 48.9,39.2 49,39.3 49.1,39.4 
			49.3,39.6 49.5,39.7 49.8,39.7 50,39.8 50.3,39.9 50.5,40 50.7,40.1 51,40.2 51.2,40.4 51.4,40.6 51.5,40.8 51.7,41.1 51.7,41.4 
			51.8,41.8 51.7,42.3 51.7,42.7 51.6,43 51.5,43.3 51.3,43.5 51.1,43.7 50.9,43.9 50.7,44.1 50.5,44.2 50.3,44.3 50,44.4 
			49.7,44.5 49.5,44.6 49.2,44.6 49,44.6 48.7,44.7 48.5,44.7 48.2,44.7 47.9,44.7 47.6,44.7 47.3,44.6 47.1,44.6 46.9,44.6 
			46.7,44.6 46.6,44.6 46.4,44.6 46.3,44.5 46.1,44.5 46,44.5 45.9,44.5 45.7,44.4 45.6,44.4 45.5,44.3 45.8,42.6 45.9,42.7 
			46,42.7 46.1,42.7 46.2,42.7 46.3,42.8 46.5,42.8 46.7,42.8 46.8,42.9 47,42.9 47.2,42.9 47.4,43 47.6,43 47.9,43 48.1,43 
			48.3,43 48.5,43 48.7,42.9 48.9,42.9 49.1,42.8 49.2,42.7 49.2,42.6 49.3,42.5 49.3,42.3 49.4,42.2 49.4,42 49.3,41.8 49.2,41.7 
			49,41.5 48.8,41.4 48.5,41.3 48.2,41.2 47.9,41.1 47.6,41 47.3,40.8 47.1,40.6 46.8,40.4 46.6,40.1 46.5,39.7 46.4,39.3 
			46.4,38.8 46.5,38.6 46.5,38.3 46.6,38 46.7,37.8 46.8,37.5 46.9,37.4 47.1,37.2 47.3,37 47.5,36.9 47.8,36.7 48,36.6 48.3,36.5 
			48.7,36.5 49,36.4 49.4,36.4 49.9,36.4 50.2,36.4 50.4,36.4 50.7,36.4 50.9,36.4 51.1,36.4 51.2,36.4 51.4,36.4 51.5,36.5 
			51.7,36.5 51.8,36.5 51.9,36.5 52,36.5 52,36.5 52.1,36.6 52.2,36.6 52.2,36.6 51.8,38.3 51.8,38.3 		"/>
		<polyline class="st4" points="51.8,38.3 51.8,38.3 51.7,38.3 51.6,38.3 51.5,38.2 51.4,38.2 51.3,38.2 51.2,38.2 51.1,38.2 
			51,38.2 50.9,38.2 50.8,38.1 50.7,38.1 50.5,38.1 50.4,38.1 50.2,38.1 50,38.2 49.8,38.2 49.8,38.2 49.6,38.2 49.5,38.2 
			49.4,38.3 49.2,38.3 49.1,38.4 49,38.4 49,38.5 48.9,38.6 48.9,38.6 48.8,38.7 48.8,38.8 48.8,38.9 48.8,39 48.9,39.1 48.9,39.2 
			49,39.3 49,39.3 49.1,39.4 49.3,39.6 49.5,39.7 49.8,39.7 50,39.8 50.3,39.9 50.5,40 50.7,40.1 51,40.2 51.2,40.4 51.4,40.6 
			51.5,40.8 51.7,41.1 51.7,41.4 51.8,41.8 51.7,42.3 51.7,42.3 51.7,42.7 51.6,43 51.5,43.3 51.3,43.5 51.1,43.7 50.9,43.9 
			50.7,44.1 50.5,44.2 50.3,44.3 50,44.4 49.7,44.5 49.5,44.6 49.2,44.6 49,44.6 48.7,44.7 48.5,44.7 48.5,44.7 48.2,44.7 
			47.9,44.7 47.6,44.7 47.3,44.6 47.1,44.6 46.9,44.6 46.7,44.6 46.6,44.6 46.4,44.6 46.3,44.5 46.1,44.5 46,44.5 45.9,44.5 
			45.7,44.4 45.6,44.4 45.5,44.3 45.8,42.6 45.8,42.6 45.9,42.7 46,42.7 46.1,42.7 46.2,42.7 46.3,42.8 46.5,42.8 46.7,42.8 
			46.8,42.9 47,42.9 47.2,42.9 47.4,43 47.6,43 47.9,43 48.1,43 48.3,43 48.5,43 48.5,43 48.7,42.9 48.9,42.9 49.1,42.8 49.2,42.7 
			49.2,42.6 49.3,42.5 49.3,42.3 49.4,42.2 49.4,42.2 49.4,42 49.3,41.8 49.2,41.7 49,41.5 48.8,41.4 48.5,41.3 48.2,41.2 
			47.9,41.1 47.6,41 47.3,40.8 47.1,40.6 46.8,40.4 46.6,40.1 46.5,39.7 46.4,39.3 46.4,38.8 46.4,38.8 46.5,38.6 46.5,38.3 
			46.6,38 46.7,37.8 46.8,37.5 46.9,37.4 47.1,37.2 47.3,37 47.5,36.9 47.8,36.7 48,36.6 48.3,36.5 48.7,36.5 49,36.4 49.4,36.4 
			49.9,36.4 49.9,36.4 50.2,36.4 50.4,36.4 50.7,36.4 50.9,36.4 51.1,36.4 51.2,36.4 51.4,36.4 51.5,36.5 51.7,36.5 51.8,36.5 
			51.9,36.5 52,36.5 52,36.5 52.1,36.6 52.2,36.6 52.2,36.6 51.8,38.3 		"/>
		<polygon class="st3" points="53.6,34.7 55.7,34.7 55.4,36.5 56.7,36.5 56.4,38.2 55.1,38.2 54.4,42.4 54.3,42.6 54.4,42.7 
			54.5,42.8 54.6,42.9 54.7,42.9 54.8,43 55,43 55.2,43 55.4,43 55.5,43 55.6,43 55.8,42.9 55.9,42.9 55.9,42.9 56,42.9 56,42.9 
			55.7,44.3 55.7,44.3 55.6,44.3 55.6,44.4 55.5,44.4 55.5,44.4 55.4,44.5 55.3,44.5 55.3,44.5 55.2,44.5 55.1,44.5 55,44.5 
			54.9,44.6 54.8,44.6 54.7,44.6 54.6,44.6 54.5,44.6 53.9,44.6 53.6,44.6 53.3,44.6 53.1,44.5 52.9,44.5 52.7,44.4 52.6,44.3 
			52.4,44.2 52.3,44.1 52.3,44 52.2,43.9 52.2,43.8 52.2,43.6 52.1,43.5 52.1,43.3 52.2,43.1 52.2,42.9 53.6,34.7 53.6,34.7 		"/>
		<polyline class="st4" points="53.6,34.7 55.7,34.7 55.4,36.5 56.7,36.5 56.4,38.2 55.1,38.2 54.4,42.4 54.4,42.4 54.3,42.6 
			54.4,42.7 54.5,42.8 54.6,42.9 54.7,42.9 54.8,43 55,43 55.2,43 55.2,43 55.4,43 55.5,43 55.6,43 55.8,42.9 55.9,42.9 55.9,42.9 
			56,42.9 56,42.9 55.7,44.3 55.7,44.3 55.7,44.3 55.6,44.3 55.6,44.4 55.5,44.4 55.5,44.4 55.4,44.5 55.3,44.5 55.3,44.5 
			55.2,44.5 55.1,44.5 55,44.5 54.9,44.6 54.8,44.6 54.7,44.6 54.6,44.6 54.5,44.6 53.9,44.6 53.9,44.6 53.6,44.6 53.3,44.6 
			53.1,44.5 52.9,44.5 52.7,44.4 52.6,44.3 52.4,44.2 52.3,44.1 52.3,44 52.2,43.9 52.2,43.8 52.2,43.6 52.1,43.5 52.1,43.3 
			52.2,43.1 52.2,42.9 53.6,34.7 		"/>
		<polyline class="st4" points="58.4,41.1 58.4,41.1 58.3,41.2 58.3,41.4 58.3,41.5 58.4,41.6 58.4,41.8 58.5,41.9 58.6,42.1 
			58.7,42.2 58.8,42.3 58.9,42.4 59,42.5 59.1,42.6 59.3,42.7 59.4,42.8 59.6,42.8 59.7,42.9 59.7,42.9 59.9,42.9 60.1,42.9 
			60.3,42.9 60.5,43 60.7,43 60.9,43 61.1,43 61.3,42.9 61.5,42.9 61.7,42.9 61.9,42.8 62.1,42.8 62.3,42.7 62.6,42.6 62.8,42.5 
			63,42.3 62.7,44.2 62.7,44.2 62.6,44.3 62.4,44.3 62.3,44.4 62.2,44.4 62.1,44.5 62,44.5 61.9,44.5 61.7,44.5 61.6,44.6 
			61.4,44.6 61.3,44.6 61.1,44.6 60.9,44.6 60.7,44.6 60.5,44.6 60.2,44.6 60.2,44.6 59.9,44.6 59.5,44.6 59.1,44.5 58.7,44.4 
			58.3,44.3 58,44.2 57.6,44 57.3,43.8 57,43.5 56.8,43.2 56.6,42.9 56.4,42.5 56.2,42 56.2,41.5 56.1,40.9 56.2,40.3 56.2,40.3 
			56.2,40.1 56.3,39.8 56.3,39.5 56.4,39.2 56.5,38.9 56.7,38.5 56.8,38.2 57,37.9 57.3,37.6 57.6,37.3 57.9,37 58.3,36.8 
			58.7,36.6 59.2,36.5 59.8,36.4 60.4,36.4 60.4,36.4 60.7,36.4 61,36.4 61.3,36.5 61.6,36.5 61.9,36.7 62.2,36.8 62.5,37 
			62.7,37.2 62.9,37.4 63.1,37.7 63.3,38.1 63.4,38.5 63.5,38.9 63.5,39.5 63.4,40 63.3,40.7 63.3,41.1 57.7,41.1 58.1,39.6 
			61.4,39.6 61.4,39.6 61.4,39.5 61.4,39.3 61.4,39.1 61.4,39 61.3,38.8 61.3,38.7 61.2,38.6 61.1,38.5 61,38.4 60.9,38.3 
			60.8,38.2 60.7,38.2 60.6,38.1 60.4,38.1 60.3,38.1 60.2,38.1 60.2,38.1 60,38.1 59.9,38.1 59.8,38.1 59.6,38.2 59.5,38.2 
			59.4,38.3 59.3,38.4 59.2,38.5 59.1,38.6 59,38.7 58.9,38.8 58.9,38.9 58.8,39.1 58.7,39.2 58.7,39.4 58.7,39.5 58.4,41.1 		"/>
		<polygon class="st3" points="76.4,37 76.3,36.9 76.2,36.9 76.1,36.8 76,36.8 75.9,36.7 75.7,36.7 75.6,36.6 75.5,36.6 75.3,36.6 
			75.2,36.5 75,36.5 74.9,36.5 74.7,36.5 74.5,36.5 74.3,36.5 74.1,36.5 74,36.5 73.8,36.5 73.6,36.5 73.3,36.5 73.1,36.6 
			72.9,36.7 72.7,36.8 72.5,36.9 72.3,37.1 72.1,37.3 71.9,37.5 71.7,37.8 71.6,38.1 71.4,38.5 71.3,38.9 71.1,39.4 71.1,39.7 
			71.1,39.9 71,40.2 71.1,40.5 71.1,40.7 71.1,41 71.2,41.2 71.3,41.4 71.4,41.6 71.5,41.8 71.7,42 71.9,42.2 72.1,42.3 72.3,42.4 
			72.6,42.5 72.9,42.6 73,42.6 73.1,42.6 73.2,42.6 73.4,42.6 73.5,42.7 73.7,42.7 73.9,42.7 74.1,42.6 74.3,42.6 74.5,42.6 
			74.7,42.5 74.8,42.5 75,42.4 75.2,42.3 75.4,42.2 75.5,42 75.2,44.1 75.1,44.1 75.1,44.1 75,44.2 75,44.2 74.9,44.3 74.8,44.3 
			74.6,44.4 74.5,44.4 74.3,44.5 74.1,44.5 73.9,44.6 73.6,44.6 73.4,44.6 73,44.6 72.6,44.6 72.2,44.6 71.9,44.5 71.5,44.5 
			71.2,44.4 70.8,44.2 70.5,44 70.2,43.8 69.9,43.5 69.6,43.2 69.3,42.9 69.1,42.5 68.9,42.1 68.8,41.6 68.7,41.1 68.7,40.6 
			68.7,40 68.8,39.4 68.8,39.1 68.9,38.8 69,38.5 69.1,38.2 69.1,37.9 69.2,37.7 69.3,37.4 69.4,37.2 69.6,36.9 69.7,36.7 
			69.8,36.5 69.9,36.3 70.1,36.1 70.2,35.9 70.4,35.8 70.5,35.6 70.7,35.5 70.9,35.3 71.1,35.2 71.3,35.1 71.5,35 71.7,34.9 
			71.9,34.8 72.1,34.7 72.3,34.6 72.6,34.6 72.8,34.5 73.1,34.5 73.3,34.4 73.6,34.4 73.9,34.4 74.1,34.4 74.4,34.4 74.6,34.4 
			74.9,34.4 75.1,34.4 75.3,34.5 75.5,34.5 75.7,34.6 75.9,34.6 76,34.6 76.2,34.7 76.3,34.7 76.5,34.8 76.6,34.8 76.7,34.9 
			76.7,34.9 76.8,34.9 76.4,37 76.4,37 		"/>
		<polyline class="st4" points="76.4,37 76.4,37 76.3,36.9 76.2,36.9 76.1,36.8 76,36.8 75.9,36.7 75.7,36.7 75.6,36.6 75.5,36.6 
			75.3,36.6 75.2,36.5 75,36.5 74.9,36.5 74.7,36.5 74.5,36.5 74.3,36.5 74.1,36.5 74.1,36.5 74,36.5 73.8,36.5 73.6,36.5 
			73.3,36.5 73.1,36.6 72.9,36.7 72.7,36.8 72.5,36.9 72.3,37.1 72.1,37.3 71.9,37.5 71.7,37.8 71.6,38.1 71.4,38.5 71.3,38.9 
			71.1,39.4 71.1,39.4 71.1,39.7 71.1,39.9 71,40.2 71.1,40.5 71.1,40.7 71.1,41 71.2,41.2 71.3,41.4 71.4,41.6 71.5,41.8 71.7,42 
			71.9,42.2 72.1,42.3 72.3,42.4 72.6,42.5 72.9,42.6 72.9,42.6 73,42.6 73.1,42.6 73.2,42.6 73.4,42.6 73.5,42.7 73.7,42.7 
			73.9,42.7 74.1,42.6 74.3,42.6 74.5,42.6 74.7,42.5 74.8,42.5 75,42.4 75.2,42.3 75.4,42.2 75.5,42 75.2,44.1 75.2,44.1 
			75.1,44.1 75.1,44.1 75,44.2 75,44.2 74.9,44.3 74.8,44.3 74.6,44.4 74.5,44.4 74.3,44.5 74.1,44.5 73.9,44.6 73.6,44.6 
			73.4,44.6 73,44.6 72.6,44.6 72.2,44.6 72.2,44.6 71.9,44.5 71.5,44.5 71.2,44.4 70.8,44.2 70.5,44 70.2,43.8 69.9,43.5 
			69.6,43.2 69.3,42.9 69.1,42.5 68.9,42.1 68.8,41.6 68.7,41.1 68.7,40.6 68.7,40 68.8,39.4 68.8,39.4 68.8,39.1 68.9,38.8 
			69,38.5 69.1,38.2 69.1,37.9 69.2,37.7 69.3,37.4 69.4,37.2 69.6,36.9 69.7,36.7 69.8,36.5 69.9,36.3 70.1,36.1 70.2,35.9 
			70.4,35.8 70.5,35.6 70.7,35.5 70.9,35.3 71.1,35.2 71.3,35.1 71.5,35 71.7,34.9 71.9,34.8 72.1,34.7 72.3,34.6 72.6,34.6 
			72.8,34.5 73.1,34.5 73.3,34.4 73.6,34.4 73.9,34.4 74.1,34.4 74.1,34.4 74.4,34.4 74.6,34.4 74.9,34.4 75.1,34.4 75.3,34.5 
			75.5,34.5 75.7,34.6 75.9,34.6 76,34.6 76.2,34.7 76.3,34.7 76.5,34.8 76.6,34.8 76.7,34.9 76.7,34.9 76.8,34.9 76.4,37 		"/>
		<polygon class="st3" points="95,44.6 92.9,44.6 93.1,43.8 93.1,43.7 93,43.9 92.8,44 92.7,44.1 92.6,44.2 92.4,44.3 92.3,44.4 
			92.2,44.5 92,44.5 91.9,44.6 91.7,44.6 91.6,44.7 91.4,44.7 91.3,44.7 91.1,44.7 91,44.7 90.8,44.7 90.4,44.7 90.1,44.6 
			89.7,44.5 89.4,44.3 89.2,44.1 88.9,43.8 88.7,43.6 88.5,43.3 88.4,42.9 88.3,42.6 88.2,42.2 88.1,41.8 88.1,41.4 88.1,41 
			88.1,40.6 88.2,40.3 88.3,39.8 88.5,39.4 88.6,39 88.8,38.6 89,38.3 89.2,38 89.5,37.7 89.7,37.5 90,37.3 90.3,37.1 90.5,36.9 
			90.8,36.8 91.1,36.7 91.4,36.6 91.7,36.6 92,36.5 92.3,36.5 92.5,36.6 92.7,36.6 92.9,36.7 93,36.7 93.2,36.8 93.3,36.9 93.5,37 
			93.6,37 93.7,37.1 93.8,37.2 93.9,37.3 94,37.4 94,37.5 94.1,37.6 94.1,37.7 94.1,37.7 94.7,34.7 96.7,34.7 95,44.6 95,44.6 		"/>
		<polyline class="st4" points="95,44.6 92.9,44.6 93.1,43.8 93.1,43.7 93.1,43.7 93,43.9 92.8,44 92.7,44.1 92.6,44.2 92.4,44.3 
			92.3,44.4 92.2,44.5 92,44.5 91.9,44.6 91.7,44.6 91.6,44.7 91.4,44.7 91.3,44.7 91.1,44.7 91,44.7 90.8,44.7 90.8,44.7 
			90.4,44.7 90.1,44.6 89.7,44.5 89.4,44.3 89.2,44.1 88.9,43.8 88.7,43.6 88.5,43.3 88.4,42.9 88.3,42.6 88.2,42.2 88.1,41.8 
			88.1,41.4 88.1,41 88.1,40.6 88.2,40.3 88.2,40.3 88.3,39.8 88.5,39.4 88.6,39 88.8,38.6 89,38.3 89.2,38 89.5,37.7 89.7,37.5 
			90,37.3 90.3,37.1 90.5,36.9 90.8,36.8 91.1,36.7 91.4,36.6 91.7,36.6 92,36.5 92,36.5 92.3,36.5 92.5,36.6 92.7,36.6 92.9,36.7 
			93,36.7 93.2,36.8 93.3,36.9 93.5,37 93.6,37 93.7,37.1 93.8,37.2 93.9,37.3 94,37.4 94,37.5 94.1,37.6 94.1,37.7 94.1,37.7 
			94.7,34.7 96.7,34.7 95,44.6 		"/>
		<polygon class="st1" points="91.6,42.8 91.8,42.8 92,42.7 92.2,42.7 92.4,42.6 92.5,42.5 92.7,42.4 92.8,42.3 92.9,42.1 93.1,42 
			93.2,41.8 93.3,41.6 93.3,41.5 93.4,41.3 93.5,41.1 93.5,40.9 93.6,40.7 93.6,40.5 93.6,40.2 93.6,40 93.6,39.8 93.6,39.6 
			93.6,39.4 93.5,39.3 93.5,39.1 93.4,38.9 93.3,38.8 93.2,38.7 93.1,38.6 92.9,38.5 92.8,38.4 92.7,38.4 92.5,38.4 92.3,38.4 
			92.1,38.4 91.9,38.5 91.8,38.5 91.6,38.6 91.5,38.8 91.3,38.9 91.2,39 91.1,39.2 91,39.4 90.9,39.5 90.8,39.7 90.7,39.9 
			90.7,40.2 90.6,40.4 90.6,40.6 90.5,40.9 90.5,41.3 90.6,41.7 90.7,42 90.8,42.3 91,42.6 91.3,42.7 91.6,42.8 91.6,42.8 		"/>
		<polygon class="st3" points="45.1,42.9 44.8,44.6 42.9,44.6 43,44.3 43,44 43,43.8 43.1,43.7 43,43.8 42.9,44 42.7,44.1 
			42.6,44.2 42.4,44.3 42.2,44.4 42,44.5 41.8,44.5 41.6,44.6 41.3,44.7 41.1,44.7 40.9,44.7 40.7,44.7 40.5,44.8 40.2,44.7 
			40,44.7 39.8,44.6 39.5,44.6 39.3,44.5 39.1,44.3 39,44.2 38.8,44.1 38.7,43.9 38.6,43.8 38.5,43.6 38.4,43.5 38.4,43.3 
			38.3,43.1 38.3,43 38.3,42.8 38.2,42.6 38.2,42.5 38.3,42.2 38.3,41.9 38.4,41.6 38.5,41.4 38.6,41.1 38.7,40.9 38.9,40.7 
			39.1,40.5 39.3,40.3 39.5,40.2 39.7,40 39.9,39.9 40.2,39.8 40.4,39.7 40.7,39.6 40.9,39.6 41,39.6 41,39.6 41.1,39.6 41.1,39.6 
			41.2,39.6 41.3,39.6 41.4,39.5 41.6,39.5 41.7,39.5 41.8,39.5 42,39.5 42.1,39.5 42.2,39.5 42.3,39.5 42.4,39.5 42.5,39.5 
			42.7,39.5 42.9,39.5 43,39.5 43.2,39.5 43.3,39.5 43.4,39.5 43.5,39.5 43.5,39.5 43.6,39.4 43.6,39.3 43.6,39.1 43.7,39 
			43.6,38.8 43.6,38.7 43.5,38.5 43.3,38.4 43.2,38.3 43,38.3 42.9,38.2 42.7,38.2 42.5,38.2 42.2,38.2 42,38.2 41.7,38.2 
			41.5,38.2 41.3,38.2 41,38.3 40.8,38.3 40.6,38.3 40.3,38.4 40.1,38.4 40,38.4 39.8,38.5 39.7,38.5 39.5,38.6 39.5,38.6 40,36.8 
			40.2,36.7 40.3,36.7 40.5,36.6 40.7,36.6 40.9,36.5 41.1,36.5 41.3,36.5 41.5,36.5 41.7,36.5 41.9,36.4 42.1,36.4 42.4,36.4 
			42.6,36.4 42.9,36.4 43.1,36.4 43.4,36.5 43.6,36.5 43.8,36.5 44.1,36.6 44.3,36.6 44.5,36.7 44.8,36.8 45,37 45.2,37.1 
			45.4,37.3 45.6,37.4 45.7,37.6 45.8,37.9 45.9,38.1 45.9,38.4 45.9,38.7 45.9,39 45.1,42.9 45.1,42.9 		"/>
		<polyline class="st4" points="45.1,42.9 44.8,44.6 42.9,44.6 42.9,44.6 43,44.3 43,44 43,43.8 43.1,43.7 43.1,43.7 43,43.8 
			42.9,44 42.7,44.1 42.6,44.2 42.4,44.3 42.2,44.4 42,44.5 41.8,44.5 41.6,44.6 41.3,44.7 41.1,44.7 40.9,44.7 40.7,44.7 
			40.5,44.8 40.2,44.7 40,44.7 40,44.7 39.8,44.6 39.5,44.6 39.3,44.5 39.1,44.3 39,44.2 38.8,44.1 38.7,43.9 38.6,43.8 38.5,43.6 
			38.4,43.5 38.4,43.3 38.3,43.1 38.3,43 38.3,42.8 38.2,42.6 38.2,42.5 38.2,42.5 38.3,42.2 38.3,41.9 38.4,41.6 38.5,41.4 
			38.6,41.1 38.7,40.9 38.9,40.7 39.1,40.5 39.3,40.3 39.5,40.2 39.7,40 39.9,39.9 40.2,39.8 40.4,39.7 40.7,39.6 40.9,39.6 
			40.9,39.6 41,39.6 41,39.6 41.1,39.6 41.1,39.6 41.2,39.6 41.3,39.6 41.4,39.5 41.6,39.5 41.7,39.5 41.8,39.5 42,39.5 42.1,39.5 
			42.2,39.5 42.3,39.5 42.4,39.5 42.5,39.5 42.5,39.5 42.7,39.5 42.9,39.5 43,39.5 43.2,39.5 43.3,39.5 43.4,39.5 43.5,39.5 
			43.5,39.5 43.5,39.5 43.6,39.4 43.6,39.3 43.6,39.1 43.7,39 43.7,39 43.6,38.8 43.6,38.7 43.5,38.5 43.3,38.4 43.2,38.3 43,38.3 
			42.9,38.2 42.7,38.2 42.7,38.2 42.5,38.2 42.2,38.2 42,38.2 41.7,38.2 41.5,38.2 41.3,38.2 41,38.3 40.8,38.3 40.6,38.3 
			40.3,38.4 40.1,38.4 40,38.4 39.8,38.5 39.7,38.5 39.5,38.6 39.5,38.6 40,36.8 40,36.8 40.2,36.7 40.3,36.7 40.5,36.6 40.7,36.6 
			40.9,36.5 41.1,36.5 41.3,36.5 41.5,36.5 41.7,36.5 41.9,36.4 42.1,36.4 42.4,36.4 42.6,36.4 42.9,36.4 43.1,36.4 43.4,36.5 
			43.4,36.5 43.6,36.5 43.8,36.5 44.1,36.6 44.3,36.6 44.5,36.7 44.8,36.8 45,37 45.2,37.1 45.4,37.3 45.6,37.4 45.7,37.6 
			45.8,37.9 45.9,38.1 45.9,38.4 45.9,38.7 45.9,39 45.1,42.9 		"/>
		<polygon class="st2" points="43.3,41 43.3,40.9 43.3,40.9 43.2,40.9 43.2,40.9 43.1,40.8 43,40.8 42.9,40.8 42.7,40.8 42.6,40.8 
			42.5,40.9 42.4,40.9 42.3,40.9 42.1,40.9 42,40.9 41.9,41 41.9,41 41.8,41 41.7,41 41.7,41 41.6,41.1 41.5,41.1 41.4,41.2 
			41.3,41.2 41.2,41.3 41.1,41.4 41,41.4 40.9,41.5 40.8,41.6 40.7,41.7 40.7,41.8 40.6,42 40.6,42.1 40.6,42.3 40.6,42.5 
			40.7,42.7 40.8,42.8 40.9,42.9 41.1,42.9 41.2,42.9 41.3,42.9 41.5,42.9 41.7,42.9 41.9,42.9 42.1,42.8 42.2,42.8 42.4,42.7 
			42.5,42.7 42.6,42.6 42.7,42.5 42.8,42.4 42.9,42.3 43,42.2 43,42.1 43.1,42 43.1,42 43.1,41.9 43.2,41.7 43.2,41.4 43.3,41.2 
			43.3,41 43.3,41 		"/>
		<polygon class="st3" points="29.2,44.6 27.2,44.6 28.9,34.7 32.5,34.7 32.8,40.6 35.3,34.7 39,34.7 37.3,44.6 35.2,44.6 
			36.5,37.2 36.4,37.2 33.3,44.6 31,44.6 31,44.3 30.9,43.5 30.9,42.3 30.8,41 30.7,39.6 30.7,38.4 30.6,37.6 30.6,37.2 30.6,37.2 
			30.5,37.2 30.5,37.2 30.5,37.2 29.2,44.6 29.2,44.6 		"/>
		<polyline class="st4" points="29.2,44.6 27.2,44.6 28.9,34.7 32.5,34.7 32.8,40.6 35.3,34.7 39,34.7 37.3,44.6 35.2,44.6 
			36.5,37.2 36.4,37.2 33.3,44.6 31,44.6 31,44.6 31,44.3 30.9,43.5 30.9,42.3 30.8,41 30.7,39.6 30.7,38.4 30.6,37.6 30.6,37.2 
			30.6,37.2 30.6,37.2 30.5,37.2 30.5,37.2 30.5,37.2 29.2,44.6 		"/>
		<polygon class="st3" points="82.7,42.9 82.4,44.6 80.5,44.6 80.5,44.3 80.5,44 80.5,43.8 80.5,43.7 80.4,43.9 80.3,44 80.2,44.1 
			80,44.2 79.9,44.3 79.7,44.4 79.5,44.5 79.3,44.5 79.1,44.6 78.9,44.7 78.7,44.7 78.5,44.7 78.2,44.7 78,44.8 77.8,44.7 
			77.6,44.7 77.3,44.6 77.1,44.6 76.9,44.5 76.7,44.3 76.5,44.2 76.4,44.1 76.3,43.9 76.2,43.8 76.1,43.6 76,43.5 75.9,43.3 
			75.9,43.1 75.9,43 75.8,42.8 75.8,42.6 75.8,42.5 75.8,42.2 75.9,41.9 76,41.6 76.1,41.4 76.2,41.1 76.3,40.9 76.5,40.7 
			76.6,40.5 76.8,40.3 77,40.2 77.3,40 77.5,39.9 77.7,39.8 78,39.7 78.2,39.6 78.5,39.6 78.5,39.6 78.5,39.6 78.6,39.6 78.7,39.6 
			78.8,39.6 78.9,39.6 79,39.5 79.1,39.5 79.2,39.5 79.4,39.5 79.5,39.5 79.6,39.5 79.8,39.5 79.9,39.5 80,39.5 80,39.5 80.2,39.5 
			80.4,39.5 80.6,39.5 80.8,39.5 80.9,39.5 81,39.5 81.1,39.5 81.1,39.5 81.1,39.4 81.2,39.3 81.2,39.1 81.2,39 81.2,38.8 
			81.1,38.7 81,38.5 80.9,38.4 80.8,38.3 80.6,38.3 80.4,38.2 80.2,38.2 80,38.2 79.8,38.2 79.6,38.2 79.3,38.2 79.1,38.2 
			78.8,38.2 78.6,38.3 78.4,38.3 78.1,38.3 77.9,38.4 77.7,38.4 77.5,38.4 77.4,38.5 77.2,38.5 77.1,38.6 77,38.6 77.6,36.8 
			77.7,36.7 77.9,36.7 78.1,36.6 78.3,36.6 78.5,36.5 78.6,36.5 78.8,36.5 79.1,36.5 79.3,36.5 79.5,36.4 79.7,36.4 79.9,36.4 
			80.2,36.4 80.4,36.4 80.7,36.4 80.9,36.5 81.1,36.5 81.4,36.5 81.6,36.6 81.8,36.6 82.1,36.7 82.3,36.8 82.5,37 82.8,37.1 
			82.9,37.3 83.1,37.4 83.3,37.6 83.4,37.9 83.5,38.1 83.5,38.4 83.5,38.7 83.5,39 82.7,42.9 82.7,42.9 		"/>
		<polygon class="st3" points="82.4,44.7 82.4,44.6 82.7,43 82.6,42.9 82.3,44.6 82.4,44.6 82.4,44.7 82.4,44.7 82.4,44.6 
			82.4,44.7 82.4,44.7 		"/>
		<polygon class="st3" points="80.4,44.6 80.5,44.7 82.4,44.7 82.4,44.6 80.5,44.6 80.5,44.6 80.4,44.6 80.4,44.7 80.5,44.7 
			80.4,44.6 80.4,44.6 		"/>
		<polygon class="st3" points="80.5,43.8 80.5,43.7 80.4,43.8 80.4,44 80.4,44.3 80.4,44.6 80.5,44.6 80.5,44.3 80.5,44 80.5,43.8 
			80.5,43.8 80.5,43.7 80.5,43.8 80.5,43.8 		"/>
		<polygon class="st3" points="77.6,44.7 77.6,44.7 77.8,44.8 78,44.8 78.2,44.8 78.5,44.8 78.7,44.7 78.9,44.7 79.1,44.6 
			79.3,44.6 79.5,44.5 79.7,44.4 79.9,44.3 80,44.2 80.2,44.1 80.3,44 80.4,43.9 80.5,43.8 80.5,43.7 80.4,43.8 80.3,43.9 80.1,44 
			80,44.1 79.8,44.2 79.6,44.3 79.5,44.4 79.3,44.5 79.1,44.6 78.9,44.6 78.7,44.7 78.5,44.7 78.2,44.7 78,44.7 77.8,44.7 
			77.6,44.7 77.6,44.7 77.6,44.7 77.6,44.7 		"/>
		<polygon class="st3" points="75.8,42.5 75.8,42.5 75.8,42.6 75.8,42.8 75.8,43 75.9,43.1 75.9,43.3 75.9,43.5 76,43.7 76.1,43.8 
			76.2,44 76.3,44.1 76.5,44.3 76.7,44.4 76.9,44.5 77.1,44.6 77.3,44.7 77.6,44.7 77.6,44.7 77.3,44.6 77.1,44.5 76.9,44.4 
			76.7,44.3 76.6,44.2 76.4,44.1 76.3,43.9 76.2,43.8 76.1,43.6 76,43.5 76,43.3 75.9,43.1 75.9,43 75.9,42.8 75.9,42.6 75.9,42.5 
			75.9,42.5 75.8,42.5 75.8,42.5 		"/>
		<polygon class="st3" points="78.5,39.6 78.5,39.6 78.2,39.6 78,39.7 77.7,39.8 77.5,39.9 77.2,40 77,40.1 76.8,40.3 76.6,40.5 
			76.4,40.7 76.3,40.9 76.1,41.1 76,41.3 75.9,41.6 75.8,41.9 75.8,42.2 75.8,42.5 75.9,42.5 75.9,42.2 75.9,41.9 76,41.6 
			76.1,41.4 76.2,41.1 76.4,40.9 76.5,40.7 76.7,40.5 76.9,40.4 77.1,40.2 77.3,40.1 77.5,39.9 77.7,39.8 78,39.8 78.2,39.7 
			78.5,39.6 78.5,39.6 78.5,39.6 78.5,39.6 		"/>
		<polygon class="st3" points="80,39.4 80,39.4 80,39.4 79.9,39.4 79.8,39.4 79.6,39.4 79.5,39.4 79.4,39.5 79.2,39.5 79.1,39.5 
			79,39.5 78.9,39.5 78.8,39.5 78.7,39.5 78.6,39.5 78.5,39.5 78.5,39.6 78.5,39.6 78.5,39.6 78.5,39.6 78.6,39.6 78.6,39.6 
			78.7,39.6 78.8,39.6 78.9,39.6 79,39.6 79.1,39.6 79.2,39.6 79.4,39.5 79.5,39.5 79.6,39.5 79.8,39.5 79.9,39.5 80,39.5 80,39.5 
			80,39.5 80,39.4 80,39.4 		"/>
		<polygon class="st3" points="81.1,39.5 81.1,39.4 81.1,39.4 81,39.4 80.9,39.4 80.8,39.4 80.6,39.4 80.4,39.4 80.2,39.4 80,39.4 
			80,39.5 80.2,39.5 80.4,39.5 80.6,39.5 80.8,39.5 80.9,39.5 81,39.5 81.1,39.5 81.1,39.5 81.2,39.5 81.1,39.5 81.2,39.5 
			81.2,39.5 81.1,39.5 81.1,39.5 		"/>
		<polygon class="st3" points="81.1,39 81.1,39 81.1,39.1 81.1,39.3 81.1,39.4 81.1,39.5 81.2,39.5 81.2,39.4 81.2,39.3 81.2,39.1 
			81.2,39 81.2,39 81.1,39 81.1,39 		"/>
		<polygon class="st3" points="80.2,38.3 80.2,38.3 80.4,38.3 80.6,38.3 80.7,38.4 80.9,38.5 81,38.6 81.1,38.7 81.1,38.8 81.1,39 
			81.2,39 81.2,38.8 81.1,38.7 81,38.5 80.9,38.4 80.8,38.3 80.6,38.2 80.4,38.2 80.2,38.2 80.2,38.2 80.2,38.3 80.2,38.3 		"/>
		<polygon class="st3" points="77,38.6 77.1,38.7 77.2,38.6 77.3,38.6 77.4,38.5 77.5,38.5 77.7,38.4 77.9,38.4 78.1,38.4 
			78.4,38.3 78.6,38.3 78.8,38.3 79.1,38.3 79.3,38.2 79.6,38.2 79.8,38.2 80,38.2 80.2,38.3 80.2,38.2 80,38.2 79.8,38.1 
			79.6,38.1 79.3,38.2 79.1,38.2 78.8,38.2 78.6,38.2 78.4,38.2 78.1,38.3 77.9,38.3 77.7,38.3 77.5,38.4 77.4,38.4 77.2,38.5 
			77.1,38.5 77,38.6 77.1,38.6 77,38.6 77,38.6 		"/>
		<polygon class="st3" points="77.6,36.8 77.5,36.8 77,38.6 77.1,38.6 77.6,36.8 77.6,36.8 77.6,36.8 77.5,36.8 77.5,36.8 
			77.6,36.8 77.6,36.8 		"/>
		<polygon class="st3" points="80.9,36.4 80.9,36.4 80.7,36.4 80.4,36.4 80.2,36.4 79.9,36.4 79.7,36.4 79.5,36.4 79.3,36.4 
			79.1,36.4 78.8,36.4 78.6,36.5 78.5,36.5 78.3,36.5 78.1,36.6 77.9,36.6 77.7,36.7 77.6,36.8 77.6,36.8 77.8,36.8 77.9,36.7 
			78.1,36.7 78.3,36.6 78.5,36.6 78.7,36.6 78.8,36.5 79.1,36.5 79.3,36.5 79.5,36.5 79.7,36.5 79.9,36.5 80.2,36.5 80.4,36.5 
			80.7,36.5 80.9,36.5 80.9,36.5 80.9,36.4 80.9,36.4 		"/>
		<polygon class="st3" points="83.5,39 83.5,39 83.6,38.7 83.6,38.4 83.5,38.1 83.4,37.9 83.3,37.6 83.2,37.4 83,37.2 82.8,37.1 
			82.6,36.9 82.3,36.8 82.1,36.7 81.9,36.6 81.6,36.5 81.4,36.5 81.1,36.4 80.9,36.4 80.9,36.5 81.1,36.5 81.4,36.6 81.6,36.6 
			81.8,36.7 82.1,36.8 82.3,36.9 82.5,37 82.7,37.1 82.9,37.3 83.1,37.5 83.2,37.7 83.3,37.9 83.4,38.1 83.5,38.4 83.5,38.7 
			83.4,39 83.4,39 83.5,39 83.5,39 		"/>
		<polygon class="st3" points="82.7,43 82.7,43 83.5,39 83.4,39 82.6,42.9 82.6,42.9 82.7,43 82.7,43 		"/>
		<polygon class="st1" points="80.9,41 80.8,40.9 80.8,40.9 80.8,40.9 80.7,40.8 80.6,40.8 80.5,40.8 80.4,40.8 80.3,40.8 
			80.1,40.9 80,40.9 79.9,40.9 79.8,40.9 79.7,40.9 79.6,40.9 79.5,41 79.4,41 79.4,41 79.3,41 79.2,41 79.1,41.1 79,41.1 
			78.9,41.2 78.8,41.2 78.7,41.3 78.6,41.3 78.5,41.4 78.5,41.5 78.4,41.6 78.3,41.7 78.3,41.8 78.2,41.9 78.2,42.1 78.2,42.3 
			78.2,42.5 78.3,42.7 78.4,42.8 78.5,42.9 78.6,42.9 78.7,42.9 78.9,42.9 79.1,42.9 79.3,42.9 79.5,42.9 79.7,42.8 79.8,42.8 
			80,42.7 80.1,42.6 80.2,42.5 80.4,42.4 80.4,42.4 80.5,42.3 80.6,42.2 80.6,42.1 80.7,42 80.7,41.9 80.7,41.8 80.8,41.6 
			80.8,41.4 80.8,41.2 80.9,41 80.9,41 		"/>
		<polygon class="st3" points="96.4,43.6 96.4,43.4 96.5,43.2 96.6,43 96.7,42.9 96.9,42.7 97.1,42.7 97.3,42.6 97.5,42.6 
			97.7,42.6 97.9,42.7 98.1,42.7 98.2,42.9 98.4,43 98.5,43.2 98.5,43.4 98.6,43.6 98.3,43.6 98.3,43.5 98.3,43.3 98.2,43.1 
			98.1,43 98,42.9 97.8,42.8 97.7,42.8 97.5,42.8 97.3,42.8 97.2,42.8 97,42.9 96.9,43 96.8,43.1 96.7,43.3 96.7,43.5 96.7,43.6 
			96.4,43.6 96.4,43.6 		"/>
		<polygon class="st3" points="97.1,43.6 97.1,43.1 97.5,43.1 97.6,43.1 97.7,43.2 97.8,43.2 97.8,43.2 97.9,43.3 97.9,43.3 
			97.9,43.4 97.9,43.4 97.9,43.5 97.9,43.5 97.9,43.6 97.8,43.6 97.5,43.6 97.6,43.6 97.6,43.6 97.7,43.6 97.7,43.5 97.7,43.5 
			97.7,43.5 97.8,43.5 97.8,43.4 97.7,43.4 97.7,43.3 97.7,43.3 97.7,43.3 97.7,43.3 97.6,43.3 97.6,43.3 97.5,43.3 97.3,43.3 
			97.3,43.6 97.1,43.6 97.1,43.6 		"/>
		<polygon class="st3" points="96.4,43.6 96.4,43.6 96.4,43.9 96.5,44.1 96.6,44.2 96.7,44.4 96.9,44.5 97.1,44.6 97.3,44.7 
			97.5,44.7 97.7,44.7 97.9,44.6 98.1,44.5 98.2,44.4 98.4,44.2 98.5,44.1 98.5,43.9 98.6,43.6 98.6,43.6 98.3,43.6 98.3,43.6 
			98.3,43.8 98.3,44 98.2,44.1 98.1,44.3 98,44.4 97.8,44.4 97.7,44.5 97.5,44.5 97.3,44.5 97.2,44.4 97,44.4 96.9,44.3 96.8,44.1 
			96.7,44 96.7,43.8 96.7,43.6 96.7,43.6 96.4,43.6 96.4,43.6 		"/>
		<polygon class="st3" points="97.1,43.6 97.1,44.1 97.3,44.1 97.3,43.7 97.5,43.7 97.7,44.1 97.9,44.1 97.6,43.7 97.7,43.7 
			97.7,43.7 97.8,43.6 97.8,43.6 97.8,43.6 97.5,43.6 97.5,43.6 97.3,43.6 97.3,43.6 97.1,43.6 97.1,43.6 		"/>
		<path class="st4" d="M96.4,43.6L96.4,43.6l0-0.2l0.1-0.2l0.1-0.2l0.1-0.2l0.2-0.1l0.2-0.1l0.2-0.1l0.2,0l0,0l0.2,0l0.2,0.1
			l0.2,0.1l0.2,0.1l0.1,0.2l0.1,0.2l0.1,0.2l0,0.2l0,0l0,0.2l-0.1,0.2l-0.1,0.2l-0.1,0.2l-0.2,0.1l-0.2,0.1l-0.2,0.1l-0.2,0l0,0
			l-0.2,0l-0.2-0.1l-0.2-0.1l-0.2-0.1l-0.1-0.2l-0.1-0.2l-0.1-0.2L96.4,43.6 M97.3,44.1h-0.2v-0.9h0.4l0,0l0.1,0l0.1,0l0.1,0l0.1,0
			l0,0l0,0l0,0.1l0,0.1l0,0l0,0.1l0,0.1l0,0l0,0l0,0l0,0l-0.1,0h-0.1l0.2,0.4h-0.1l-0.2-0.4h-0.2V44.1 M97.5,43.6L97.5,43.6
			L97.5,43.6l0.1,0l0,0l0,0l0,0l0,0l0,0v-0.1l0,0l0,0l0,0l0,0l0,0l0,0l0,0h0h0h-0.2v0.3H97.5 M97.5,44.5L97.5,44.5l0.2,0l0.2-0.1
			l0.1-0.1l0.1-0.1l0.1-0.1l0.1-0.1l0-0.2l0-0.2l0,0l0-0.2l0-0.2l-0.1-0.2L98.1,43L98,42.9l-0.1-0.1l-0.2-0.1l-0.2,0l0,0l-0.2,0
			l-0.2,0.1L97,42.9L96.9,43l-0.1,0.1l-0.1,0.2l0,0.2l0,0.2l0,0l0,0.2l0,0.2l0.1,0.1l0.1,0.1l0.1,0.1l0.1,0.1l0.2,0.1L97.5,44.5"/>
		<polygon class="st3" points="83.2,44.6 85.4,44.6 85.4,44.6 86.1,40.3 86.2,40.2 86.2,40 86.3,39.8 86.3,39.7 86.4,39.5 
			86.5,39.3 86.6,39.2 86.7,39 86.8,38.9 87,38.8 87.2,38.7 87.4,38.6 87.6,38.5 87.8,38.5 88.1,38.4 88.4,38.4 88.5,38.4 
			88.6,38.4 88.6,38.4 88.6,38.4 88.9,36.5 88.7,36.5 88.5,36.5 88.3,36.5 88.1,36.6 88,36.6 87.8,36.7 87.7,36.8 87.5,36.9 
			87.4,37 87.3,37.1 87.1,37.2 87,37.3 86.9,37.5 86.8,37.6 86.7,37.8 86.6,37.9 86.8,36.5 84.7,36.5 83.2,44.6 83.2,44.6 
			83.2,44.6 		"/>
		<polyline class="st4" points="83.2,44.6 85.4,44.6 85.4,44.6 86.1,40.3 86.1,40.3 86.2,40.2 86.2,40 86.3,39.8 86.3,39.7 
			86.4,39.5 86.5,39.3 86.6,39.2 86.7,39 86.8,38.9 87,38.8 87.2,38.7 87.4,38.6 87.6,38.5 87.8,38.5 88.1,38.4 88.4,38.4 
			88.4,38.4 88.5,38.4 88.6,38.4 88.6,38.4 88.6,38.4 88.9,36.5 88.9,36.5 88.7,36.5 88.5,36.5 88.3,36.5 88.1,36.6 88,36.6 
			87.8,36.7 87.7,36.8 87.5,36.9 87.4,37 87.3,37.1 87.1,37.2 87,37.3 86.9,37.5 86.8,37.6 86.7,37.8 86.6,37.9 86.8,36.5 
			84.7,36.5 83.2,44.6 83.2,44.6 		"/>
		<polygon class="st3" points="63.2,44.6 65.4,44.6 65.4,44.6 66.1,40.3 66.1,40.2 66.2,40 66.2,39.8 66.3,39.7 66.3,39.5 
			66.4,39.4 66.5,39.3 66.6,39.1 66.7,39 66.9,38.9 67,38.8 67.2,38.7 67.4,38.7 67.7,38.6 67.9,38.6 68.2,38.5 68.2,38.5 
			68.3,38.6 68.3,38.6 68.3,38.6 68.4,38.6 68.4,38.6 68.4,38.6 68.4,38.6 68.4,38.6 68.5,38.5 68.5,38.3 68.5,38.2 68.6,38 
			68.6,37.8 68.7,37.5 68.8,37.3 68.8,37.2 68.9,37 69,36.9 69.1,36.8 69.1,36.7 69.2,36.6 69.2,36.5 69.2,36.5 69.2,36.5 
			69.2,36.5 69.2,36.5 69.1,36.5 69.1,36.5 69,36.5 68.9,36.5 68.9,36.5 68.7,36.5 68.4,36.5 68.2,36.5 68.1,36.6 67.9,36.6 
			67.7,36.7 67.6,36.8 67.5,36.9 67.3,37 67.2,37.1 67.1,37.2 67,37.3 66.9,37.5 66.8,37.6 66.6,37.8 66.5,37.9 66.8,36.5 
			64.6,36.5 63.2,44.6 63.2,44.6 63.2,44.6 		"/>
		<polyline class="st4" points="63.2,44.6 65.4,44.6 65.4,44.6 66.1,40.3 66.1,40.3 66.1,40.2 66.2,40 66.2,39.8 66.3,39.7 
			66.3,39.5 66.4,39.4 66.5,39.3 66.6,39.1 66.7,39 66.9,38.9 67,38.8 67.2,38.7 67.4,38.7 67.7,38.6 67.9,38.6 68.2,38.5 
			68.2,38.5 68.2,38.5 68.3,38.6 68.3,38.6 68.3,38.6 68.4,38.6 68.4,38.6 68.4,38.6 68.4,38.6 68.4,38.6 68.4,38.6 68.5,38.5 
			68.5,38.3 68.5,38.2 68.6,38 68.6,37.8 68.7,37.5 68.8,37.3 68.8,37.3 68.8,37.2 68.9,37 69,36.9 69.1,36.8 69.1,36.7 69.2,36.6 
			69.2,36.5 69.2,36.5 69.2,36.5 69.2,36.5 69.2,36.5 69.2,36.5 69.1,36.5 69.1,36.5 69,36.5 68.9,36.5 68.9,36.5 68.9,36.5 
			68.7,36.5 68.4,36.5 68.2,36.5 68.1,36.6 67.9,36.6 67.7,36.7 67.6,36.8 67.5,36.9 67.3,37 67.2,37.1 67.1,37.2 67,37.3 
			66.9,37.5 66.8,37.6 66.6,37.8 66.5,37.9 66.8,36.5 64.6,36.5 63.2,44.6 63.2,44.6 		"/>
		<polygon class="st1" points="96.4,52.6 96.4,52.5 96.5,52.3 96.6,52.2 96.7,52 96.9,51.9 97.1,51.8 97.3,51.8 97.5,51.7 
			97.7,51.8 97.9,51.8 98.1,51.9 98.2,52 98.4,52.2 98.5,52.3 98.5,52.5 98.5,52.6 98.3,52.6 98.3,52.4 98.2,52.3 98.1,52.1 98,52 
			97.8,52 97.7,51.9 97.5,51.9 97.3,51.9 97.2,52 97,52 96.9,52.1 96.8,52.3 96.7,52.4 96.7,52.6 96.4,52.6 96.4,52.6 		"/>
		<polygon class="st1" points="97.1,52.6 97.1,52.3 97.5,52.3 97.6,52.3 97.7,52.3 97.8,52.3 97.8,52.4 97.9,52.4 97.9,52.4 
			97.9,52.5 97.9,52.6 97.8,52.6 97.8,52.5 97.7,52.5 97.7,52.5 97.7,52.4 97.7,52.4 97.7,52.4 97.6,52.4 97.6,52.4 97.5,52.4 
			97.3,52.4 97.3,52.6 97.1,52.6 97.1,52.6 		"/>
		<polygon class="st1" points="96.4,52.7 96.4,52.6 96.7,52.6 96.7,52.6 96.7,52.7 96.4,52.7 96.4,52.7 		"/>
		<polygon class="st1" points="97.1,52.7 97.1,52.6 97.3,52.6 97.3,52.7 97.5,52.7 97.6,52.7 97.6,52.7 97.7,52.7 97.7,52.7 
			97.7,52.6 97.7,52.6 97.8,52.6 97.8,52.6 97.9,52.6 97.9,52.6 97.9,52.6 97.9,52.7 97.9,52.7 97.8,52.7 97.1,52.7 97.1,52.7 		"/>
		<polygon class="st1" points="98.3,52.7 98.3,52.6 98.3,52.6 98.5,52.6 98.6,52.7 98.3,52.7 98.3,52.7 		"/>
		<polygon class="st1" points="96.4,52.7 96.4,52.8 96.4,53 96.5,53.2 96.6,53.4 96.7,53.5 96.9,53.7 97.1,53.7 97.3,53.8 
			97.5,53.8 97.7,53.8 97.9,53.7 98.1,53.7 98.2,53.5 98.4,53.4 98.5,53.2 98.5,53 98.6,52.8 98.6,52.7 98.3,52.7 98.3,52.8 
			98.3,52.9 98.3,53.1 98.2,53.2 98.1,53.4 98,53.5 97.8,53.6 97.7,53.6 97.5,53.6 97.3,53.6 97.2,53.6 97,53.5 96.9,53.4 
			96.8,53.2 96.7,53.1 96.7,52.9 96.7,52.8 96.7,52.7 96.4,52.7 96.4,52.7 		"/>
		<polygon class="st1" points="97.1,52.7 97.1,53.2 97.3,53.2 97.3,52.8 97.5,52.8 97.7,53.2 97.9,53.2 97.6,52.8 97.7,52.8 
			97.7,52.8 97.8,52.8 97.8,52.7 97.8,52.7 97.1,52.7 97.1,52.7 		"/>
		<path class="st3" d="M63.5,38.9l-0.1-0.5l-0.1-0.4l-0.2-0.3l-0.2-0.3l-0.2-0.3L62.5,37l-0.3-0.2l-0.3-0.1l-0.3-0.1l-0.3-0.1
			L61,36.4l-0.3,0l-0.3,0l-0.6,0l-0.5,0.1l-0.5,0.1l-0.4,0.2L57.9,37l-0.3,0.3l-0.3,0.3L57,37.9l-0.2,0.3l-0.2,0.3l-0.1,0.3
			l-0.1,0.3l-0.1,0.3l-0.1,0.3l0,0.3l0,0.2l0,0.6l0,0.6l0.1,0.5l0.1,0.4l0.2,0.4l0.2,0.3l0.3,0.3l0.3,0.3l0.3,0.2l0.3,0.2l0.4,0.1
			l0.4,0.1l0.4,0.1l0.4,0.1l0.4,0l0.4,0h0.2l0.2,0h0.2l0.2,0l0.2,0l0.2,0l0.2,0l0.1,0l0.1,0l0.1,0l0.1,0l0.1,0l0.1,0l0.1,0l0.1-0.1
			l0.1-0.1l0.3-1.9l-0.2,0.1l-0.2,0.1l-0.2,0.1l-0.2,0.1l-0.2,0.1l-0.2,0l-0.2,0l-0.2,0l-0.2,0l-0.2,0h-0.2l-0.2,0l-0.2,0l-0.2,0
			l-0.2,0l-0.2,0l-0.2,0l-0.1-0.1l-0.2-0.1l-0.1-0.1L59,42.5l-0.1-0.1l-0.1-0.1l-0.1-0.1l-0.1-0.1l-0.1-0.1l-0.1-0.1l-0.1-0.1l0-0.1
			l0-0.1l0-0.1l0-0.1h4.9l0-0.5l0.1-0.6l0.1-0.6L63.5,38.9z M61.4,39.6h-2.8l0,0l0,0l0-0.1l0-0.2l0-0.2l0.1-0.2l0.1-0.1l0.1-0.1
			l0.1-0.1l0.1-0.1l0.1-0.1l0.1-0.1l0.1-0.1l0.1-0.1l0.1-0.1l0.1,0l0.1,0l0.1,0l0.1,0l0.1,0l0.1,0l0.1,0l0.1,0l0.1,0.1l0.1,0.1
			l0.1,0.1l0.1,0.1l0.1,0.1l0.1,0.1l0.1,0.1l0.1,0.1l0,0.2l0,0.2l0,0.2L61.4,39.6z"/>
	</g>
</g>
</svg>
