<svg id="Layer_1" data-name="Layer 1" xmlns="http://www.w3.org/2000/svg" viewBox="0 0 319 52">
  <defs>
    <style>.cls-1{fill:#c81414;}</style>
  </defs>
  <path class="cls-1"
        d="M62,43V9h9.57c9.56,0,13,3.58,13,10.25,0,5.52-4.72,8.65-9.92,9.88,1.76,6.9,6.63,9.16,10.93,9.16V43c-8,0-15.7-4-16.66-18.17h2.7c4.48,0,7.23-1.8,7.23-5.58s-2.38-5.57-7.24-5.57h-4V43Z"/>
  <path class="cls-1" d="M109.81,43H90.57V9h19.24v4.7H96.13V23h12.81v4.66H96.13V38.29h13.68Z"/>
  <path class="cls-1"
        d="M143.47,25.69q0,8.42-4.68,12.87T125.33,43h-9.51V9h10.51q8.12,0,12.63,4.37T143.47,25.69Zm-5.86.18q0-12.21-11.42-12.21h-4.81V38.34h4Q137.62,38.34,137.61,25.87Z"/>
  <path class="cls-1" d="M159.66,43H154.1V13.78h-10V9h25.56v4.77h-10Z"/>
  <path class="cls-1"
        d="M191.66,43l-3.39-9.4H175.33L172,43h-5.83L178.85,9h6l12.67,34Zm-4.85-14.17-3.17-9.22c-.23-.62-.55-1.59-1-2.92s-.69-2.3-.84-2.92A52.76,52.76,0,0,1,180,20L177,28.84Z"/>
  <path class="cls-1" d="M201.36,43V9h5.56V43Z"/>
  <path class="cls-1" d="M214.6,43V9h5.56V38.24h14.39V43Z"/>
  <path class="cls-1" d="M26,50A24,24,0,1,1,50,26,24,24,0,0,1,26,50ZM48,26A22,22,0,1,0,26,48,22,22,0,0,0,48,26Z"/>
  <path class="cls-1"
        d="M13.23,39.4a1,1,0,0,1-.43-1.9,34.83,34.83,0,0,1,7.85-2.73V31.39A6.53,6.53,0,0,1,18,26.26a2.83,2.83,0,0,1-1.12-2.48,3,3,0,0,1,.92-2.35c-.45-1.59-1.19-4.41.16-5.86a2.74,2.74,0,0,1,2.31-.8,9.21,9.21,0,0,1,8.92-3.23c3,.49,5.22,2.09,5.72,4.06s-.22,4.49-.66,5.85a3,3,0,0,1,.9,2.33,2.83,2.83,0,0,1-1.12,2.48,6.53,6.53,0,0,1-2.62,5.13v3.38a34.62,34.62,0,0,1,7.72,2.67,1,1,0,0,1-.87,1.81,31.29,31.29,0,0,0-8-2.66,1,1,0,0,1-.85-1V30.82a1,1,0,0,1,.61-.92c.07,0,2-1,2-4.36a1,1,0,0,1,.92-1,1.54,1.54,0,0,0,.17-.76A1.55,1.55,0,0,0,33,23a1,1,0,0,1-.92-1A3.7,3.7,0,0,1,32.34,21c.34-1.07,1-3.29.66-4.87-.29-1.15-2-2.23-4.11-2.57a7.11,7.11,0,0,0-7.28,2.87,1,1,0,0,1-1,.44c-.32-.07-.89-.14-1.11.1-.42.45-.3,1.82.33,4.09A3.75,3.75,0,0,1,20,22a1,1,0,0,1-.92,1,1.55,1.55,0,0,0-.17.77,1.5,1.5,0,0,0,.17.76,1,1,0,0,1,.92,1c0,3.38,2,4.33,2.05,4.37a1,1,0,0,1,.6.91V35.6a1,1,0,0,1-.85,1,31.58,31.58,0,0,0-8.14,2.71A.94.94,0,0,1,13.23,39.4Z"/>
  <path class="cls-1"
        d="M257.5,22.61a5.78,5.78,0,0,1,6,4.68h3.55c-.8-5-4.7-7.89-9.62-7.89-6,0-10.47,4.51-10.47,12s4.42,12,10.47,12c5.11,0,8.86-3.21,9.62-7.81h-3.55a5.79,5.79,0,0,1-6.05,4.61c-4,0-7-3.06-7-8.75S253.49,22.61,257.5,22.61Z"/>
  <path class="cls-1"
        d="M288.28,27c0-4.29-2.66-7.3-8.06-7.3h-8.3V43h3.52V34.19h5L285.17,43h4L284,33.58C286.86,32.52,288.28,30.14,288.28,27Zm-8.39,4.15h-4.45V22.73h4.41c3.46,0,4.9,1.65,4.9,4.29S283.31,31.17,279.89,31.17Z"/>
  <polygon class="cls-1"
           points="312.56 19.72 305.15 37.82 304.88 37.82 297.46 19.72 293.2 19.72 293.2 43 296.54 43 296.54 26.14 296.76 26.14 303.63 42.97 306.4 42.97 313.26 26.15 313.48 26.15 313.48 43 316.82 43 316.82 19.72 312.56 19.72"/>
</svg>