<?xml version="1.0" encoding="utf-8"?>
<!-- Generator: Adobe Illustrator 19.1.0, SVG Export Plug-In . SVG Version: 6.00 Build 0)  -->
<svg version="1.1" id="Layer_1" xmlns="http://www.w3.org/2000/svg" xmlns:xlink="http://www.w3.org/1999/xlink" x="0px" y="0px"
	 viewBox="0 0 125 78" style="enable-background:new 0 0 125 78;" xml:space="preserve">
<style type="text/css">
	.st0{fill:#FFFFFF;}
	.st1{fill:#0767B0;}
	.st2{fill:#F9A533;}
</style>
<g>
	<path class="st0" d="M125,73.8c0,2.3-1.9,4.2-4.2,4.2H4.2C1.9,78,0,76.1,0,73.8V4.2C0,1.9,1.9,0,4.2,0h116.7c2.3,0,4.2,1.9,4.2,4.2
		V73.8z"/>
	<g>
		<g>
			<polygon class="st1" points="57.5,50.7 51.4,50.7 55.2,27.3 61.3,27.3 			"/>
			<path class="st1" d="M46.3,27.3l-5.8,16.1l-0.7-3.5v0l-2.1-10.5c0,0-0.2-2.1-2.9-2.1h-9.6l-0.1,0.4c0,0,2.9,0.6,6.4,2.7l5.3,20.3
				h6.4l9.7-23.4H46.3z"/>
			<path class="st1" d="M94.3,50.7h5.6L95,27.3h-4.9c-2.3,0-2.8,1.7-2.8,1.7l-9.1,21.7h6.4l1.3-3.5h7.8L94.3,50.7z M87.6,42.4
				l3.2-8.8l1.8,8.8H87.6z"/>
			<path class="st1" d="M78.7,32.9l0.9-5c0,0-2.7-1-5.5-1c-3,0-10.2,1.3-10.2,7.8c0,6.1,8.4,6.1,8.4,9.3c0,3.2-7.6,2.6-10.1,0.6
				l-0.9,5.3c0,0,2.7,1.3,6.9,1.3c4.2,0,10.5-2.2,10.5-8c0-6.1-8.5-6.7-8.5-9.3C70.1,31.2,76.1,31.5,78.7,32.9z"/>
		</g>
		<path class="st2" d="M39.8,39.9l-2.1-10.5c0,0-0.2-2.1-2.9-2.1h-9.6l-0.1,0.4c0,0,4.6,1,9.1,4.5C38.4,35.7,39.8,39.9,39.8,39.9z"
			/>
	</g>
</g>
</svg>
